<?xml version="1.0" encoding="utf-8"?>
<svg version="1.1" xmlns:xlink="http://www.w3.org/1999/xlink" width="170px" height="170px" xmlns="http://www.w3.org/2000/svg">
  <g transform="matrix(1 0 0 1 -15 -105 )">
    <path d="M 100 105  C 147.6 105  185 142.4  185 190  C 185 237.6  147.6 275  100 275  C 52.4 275  15 237.6  15 190  C 15 142.4  52.4 105  100 105  Z " fill-rule="nonzero" fill="#ffffff" stroke="none" />
    <path d="M 100 105.5  C 147.32 105.5  184.5 142.68  184.5 190  C 184.5 237.32  147.32 274.5  100 274.5  C 52.67999999999999 274.5  15.5 237.32  15.5 190  C 15.5 142.68  52.67999999999999 105.5  100 105.5  Z " stroke-width="1" stroke="#797979" fill="none" />
  </g>
</svg>