<?xml version="1.0" encoding="utf-8"?>
<svg version="1.1" xmlns:xlink="http://www.w3.org/1999/xlink" width="30px" height="35px" xmlns="http://www.w3.org/2000/svg">
  <g transform="matrix(1 0 0 1 -1171 -67 )">
    <path d="M 8.333333333333334 11.136363636363638  L 8.333333333333334 16  L 21.666666666666668 16  L 21.666666666666668 11.136363636363638  C 21.666666666666668 9.379734848484848  21.015625 7.87997159090909  19.713541666666668 6.6370738636363615  C 18.411458333333332 5.3941761363636385  16.84027777777778 4.7727272727272725  15 4.7727272727272725  C 13.159722222222223 4.7727272727272725  11.588541666666666 5.3941761363636385  10.286458333333332 6.6370738636363615  C 8.984375 7.87997159090909  8.333333333333334 9.379734848484848  8.333333333333334 11.136363636363638  Z M 29.270833333333332 16.605113636363637  C 29.756944444444446 17.06912878787879  30 17.632575757575754  30 18.295454545454543  L 30 32.61363636363637  C 30 33.276515151515156  29.756944444444446 33.83996212121212  29.270833333333332 34.30397727272727  C 28.78472222222223 34.76799242424242  28.194444444444446 35  27.5 35  L 2.5 35  C 1.8055555555555558 35  1.215277777777778 34.76799242424242  0.7291666666666666 34.30397727272727  C 0.24305555555555555 33.83996212121212  0 33.276515151515156  0 32.61363636363637  L 0 18.295454545454543  C 0 17.632575757575754  0.24305555555555555 17.06912878787879  0.7291666666666666 16.605113636363637  C 1.215277777777778 16.141098484848484  1.8055555555555558 15.90909090909091  2.5 15.90909090909091  L 3.333333333333333 15.90909090909091  L 3.333333333333333 11.136363636363638  C 3.333333333333333 8.08712121212121  4.479166666666667 5.46875  6.770833333333333 3.28125  C 9.0625 1.09375  11.805555555555557 0  15 0  C 18.194444444444446 0  20.9375 1.09375  23.229166666666668 3.28125  C 25.520833333333332 5.46875  26.666666666666664 8.08712121212121  26.666666666666664 11.136363636363638  L 26.666666666666664 15.90909090909091  L 27.5 15.90909090909091  C 28.194444444444446 15.90909090909091  28.78472222222223 16.141098484848484  29.270833333333332 16.605113636363637  Z " fill-rule="nonzero" fill="#000000" stroke="none" transform="matrix(1 0 0 1 1171 67 )" />
  </g>
</svg>