<?xml version="1.0" encoding="utf-8"?>
<svg version="1.1" xmlns:xlink="http://www.w3.org/1999/xlink" width="41px" height="50px" xmlns="http://www.w3.org/2000/svg">
  <g transform="matrix(1 0 0 1 -389 201 )">
    <path d="M 11.38888888888889 15.909090909090912  L 11.38888888888889 23  L 29.61111111111111 23  L 29.61111111111111 15.909090909090912  C 29.61111111111111 13.39962121212121  28.721354166666668 11.25710227272727  26.94184027777778 9.481534090909088  C 25.16232638888889 7.705965909090912  23.0150462962963 6.8181818181818175  20.5 6.8181818181818175  C 17.984953703703706 6.8181818181818175  15.83767361111111 7.705965909090912  14.058159722222221 9.481534090909088  C 12.278645833333334 11.25710227272727  11.38888888888889 13.39962121212121  11.38888888888889 15.909090909090912  Z M 40.00347222222222 23.72159090909091  C 40.667824074074076 24.384469696969695  41 25.189393939393934  41 26.136363636363637  L 41 46.59090909090909  C 41 47.53787878787879  40.667824074074076 48.34280303030303  40.00347222222222 49.00568181818182  C 39.33912037037038 49.66856060606061  38.53240740740741 50  37.58333333333333 50  L 3.4166666666666665 50  C 2.467592592592593 50  1.66087962962963 49.66856060606061  0.9965277777777778 49.00568181818182  C 0.33217592592592593 48.34280303030303  0 47.53787878787879  0 46.59090909090909  L 0 26.136363636363637  C 0 25.189393939393934  0.33217592592592593 24.384469696969695  0.9965277777777778 23.72159090909091  C 1.66087962962963 23.05871212121212  2.467592592592593 22.72727272727273  3.4166666666666665 22.72727272727273  L 4.555555555555555 22.72727272727273  L 4.555555555555555 15.909090909090912  C 4.555555555555555 11.553030303030297  6.121527777777778 7.8125  9.253472222222223 4.6875  C 12.385416666666666 1.5625  16.13425925925926 0  20.5 0  C 24.86574074074074 0  28.614583333333332 1.5625  31.74652777777778 4.6875  C 34.87847222222222 7.8125  36.44444444444444 11.553030303030297  36.44444444444444 15.909090909090912  L 36.44444444444444 22.72727272727273  L 37.58333333333333 22.72727272727273  C 38.53240740740741 22.72727272727273  39.33912037037038 23.05871212121212  40.00347222222222 23.72159090909091  Z " fill-rule="nonzero" fill="#000000" stroke="none" transform="matrix(1 0 0 1 389 -201 )" />
  </g>
</svg>