<?xml version="1.0" encoding="utf-8"?>
<svg version="1.1" xmlns:xlink="http://www.w3.org/1999/xlink" width="18px" height="18px" viewBox="602 671  18 18" xmlns="http://www.w3.org/2000/svg">
  <path d="M 603.5 673  A 0.5 0.5 0 0 1 604 672.5 L 618 672.5  A 0.5 0.5 0 0 1 618.5 673 L 618.5 687  A 0.5 0.5 0 0 1 618 687.5 L 604 687.5  A 0.5 0.5 0 0 1 603.5 687 L 603.5 673  Z " fill-rule="nonzero" fill="#ffffff" stroke="none" fill-opacity="0" />
  <path d="M 603 673  A 1 1 0 0 1 604 672 L 618 672  A 1 1 0 0 1 619 673 L 619 687  A 1 1 0 0 1 618 688 L 604 688  A 1 1 0 0 1 603 687 L 603 673  Z " stroke-width="2" stroke="#797979" fill="none" />
</svg>