<?xml version="1.0" encoding="utf-8"?>
<svg version="1.1" xmlns:xlink="http://www.w3.org/1999/xlink" width="18px" height="18px" viewBox="602 711  18 18" xmlns="http://www.w3.org/2000/svg">
  <path d="M 603.5 713  A 0.5 0.5 0 0 1 604 712.5 L 618 712.5  A 0.5 0.5 0 0 1 618.5 713 L 618.5 727  A 0.5 0.5 0 0 1 618 727.5 L 604 727.5  A 0.5 0.5 0 0 1 603.5 727 L 603.5 713  Z " fill-rule="nonzero" fill="#ffffff" stroke="none" fill-opacity="0" />
  <path d="M 603 713  A 1 1 0 0 1 604 712 L 618 712  A 1 1 0 0 1 619 713 L 619 727  A 1 1 0 0 1 618 728 L 604 728  A 1 1 0 0 1 603 727 L 603 713  Z " stroke-width="2" stroke="#797979" fill="none" />
</svg>