<?xml version="1.0" encoding="utf-8"?>
<svg version="1.1" xmlns:xlink="http://www.w3.org/1999/xlink" width="18px" height="18px" viewBox="602 789  18 18" xmlns="http://www.w3.org/2000/svg">
  <path d="M 603.5 791  A 0.5 0.5 0 0 1 604 790.5 L 618 790.5  A 0.5 0.5 0 0 1 618.5 791 L 618.5 805  A 0.5 0.5 0 0 1 618 805.5 L 604 805.5  A 0.5 0.5 0 0 1 603.5 805 L 603.5 791  Z " fill-rule="nonzero" fill="#ffffff" stroke="none" fill-opacity="0" />
  <path d="M 603 791  A 1 1 0 0 1 604 790 L 618 790  A 1 1 0 0 1 619 791 L 619 805  A 1 1 0 0 1 618 806 L 604 806  A 1 1 0 0 1 603 805 L 603 791  Z " stroke-width="2" stroke="#797979" fill="none" />
</svg>