<?xml version="1.0" encoding="utf-8"?>
<svg version="1.1" xmlns:xlink="http://www.w3.org/1999/xlink" width="18px" height="18px" viewBox="602 826  18 18" xmlns="http://www.w3.org/2000/svg">
  <path d="M 603.5 828  A 0.5 0.5 0 0 1 604 827.5 L 618 827.5  A 0.5 0.5 0 0 1 618.5 828 L 618.5 842  A 0.5 0.5 0 0 1 618 842.5 L 604 842.5  A 0.5 0.5 0 0 1 603.5 842 L 603.5 828  Z " fill-rule="nonzero" fill="#ffffff" stroke="none" fill-opacity="0" />
  <path d="M 603 828  A 1 1 0 0 1 604 827 L 618 827  A 1 1 0 0 1 619 828 L 619 842  A 1 1 0 0 1 618 843 L 604 843  A 1 1 0 0 1 603 842 L 603 828  Z " stroke-width="2" stroke="#797979" fill="none" />
</svg>