<?xml version="1.0" encoding="utf-8"?>
<svg version="1.1" xmlns:xlink="http://www.w3.org/1999/xlink" width="31px" height="31px" xmlns="http://www.w3.org/2000/svg">
  <g transform="matrix(1 0 0 1 -813 -609 )">
    <path d="M 30.26936026936027 23.17171717171717  C 30.756453423120092 23.65881032547699  31 24.250280583613915  31 24.946127946127945  C 31 25.641975308641978  30.756453423120092 26.233445566778897  30.26936026936027 26.72053872053872  L 26.72053872053872 30.26936026936027  C 26.233445566778904 30.756453423120092  25.641975308641975 31  24.946127946127945 31  C 24.25028058361392 31  23.658810325476995 30.756453423120092  23.171717171717173 30.26936026936027  L 15.5 22.5976430976431  L 7.828282828282829 30.26936026936027  C 7.341189674523009 30.756453423120092  6.749719416386084 31  6.053872053872054 31  C 5.358024691358025 31  4.766554433221101 30.756453423120092  4.279461279461279 30.26936026936027  L 0.7306397306397306 26.72053872053872  C 0.24354657687991044 26.233445566778897  0 25.641975308641978  0 24.946127946127945  C 0 24.250280583613915  0.24354657687991044 23.65881032547699  0.7306397306397306 23.17171717171717  L 8.402356902356901 15.5  L 0.7306397306397306 7.828282828282827  C 0.24354657687991044 7.341189674523005  0 6.749719416386084  0 6.053872053872054  C 0 5.3580246913580245  0.24354657687991044 4.766554433221096  0.7306397306397306 4.27946127946128  L 4.279461279461279 0.7306397306397308  C 4.766554433221101 0.2435465768799091  5.358024691358025 0  6.053872053872054 0  C 6.749719416386084 0  7.341189674523009 0.2435465768799091  7.828282828282829 0.7306397306397308  L 15.5 8.402356902356903  L 23.171717171717173 0.7306397306397308  C 23.658810325476995 0.2435465768799091  24.25028058361392 0  24.946127946127945 0  C 25.641975308641975 0  26.233445566778904 0.2435465768799091  26.72053872053872 0.7306397306397308  L 30.26936026936027 4.27946127946128  C 30.756453423120092 4.766554433221096  31 5.3580246913580245  31 6.053872053872054  C 31 6.749719416386084  30.756453423120092 7.341189674523005  30.26936026936027 7.828282828282827  L 22.597643097643097 15.5  L 30.26936026936027 23.17171717171717  Z " fill-rule="nonzero" fill="#000000" stroke="none" transform="matrix(1 0 0 1 813 609 )" />
  </g>
</svg>