<?xml version="1.0" encoding="utf-8"?>
<svg version="1.1" xmlns:xlink="http://www.w3.org/1999/xlink" width="106px" height="106px" xmlns="http://www.w3.org/2000/svg">
  <g transform="matrix(1 0 0 1 -157 -227 )">
    <path d="M 210 227  C 239.68 227  263 250.32  263 280  C 263 309.68  239.68 333  210 333  C 180.32 333  157 309.68  157 280  C 157 250.32  180.32 227  210 227  Z " fill-rule="nonzero" fill="#820010" stroke="none" />
    <path d="M 210 227.5  C 239.4 227.5  262.5 250.6  262.5 280  C 262.5 309.4  239.4 332.5  210 332.5  C 180.6 332.5  157.5 309.4  157.5 280  C 157.5 250.6  180.6 227.5  210 227.5  Z " stroke-width="1" stroke="#797979" fill="none" />
  </g>
</svg>