<?xml version="1.0" encoding="utf-8"?>
<svg version="1.1" xmlns:xlink="http://www.w3.org/1999/xlink" width="18px" height="20px" xmlns="http://www.w3.org/2000/svg">
  <g transform="matrix(1 0 0 1 -812 -546 )">
    <path d="M 17.575757575757574 14.949494949494948  C 17.858585858585858 15.263748597081928  18 15.645342312008976  18 16.094276094276093  C 18 16.543209876543212  17.858585858585858 16.92480359147026  17.575757575757574 17.23905723905724  L 15.515151515151514 19.52861952861953  C 15.232323232323235 19.84287317620651  14.88888888888889 20  14.484848484848484 20  C 14.080808080808083 20  13.737373737373739 19.84287317620651  13.454545454545455 19.52861952861953  L 9 14.579124579124581  L 4.545454545454546 19.52861952861953  C 4.262626262626263 19.84287317620651  3.9191919191919196 20  3.515151515151515 20  C 3.1111111111111116 20  2.767676767676768 19.84287317620651  2.484848484848485 19.52861952861953  L 0.42424242424242425 17.23905723905724  C 0.14141414141414155 16.92480359147026  0 16.543209876543212  0 16.094276094276093  C 0 15.645342312008976  0.14141414141414155 15.263748597081928  0.42424242424242425 14.949494949494948  L 4.878787878787879 10  L 0.42424242424242425 5.05050505050505  C 0.14141414141414155 4.736251402918068  0 4.354657687991022  0 3.9057239057239057  C 0 3.45679012345679  0.14141414141414155 3.075196408529739  0.42424242424242425 2.7609427609427617  L 2.484848484848485 0.47138047138047146  C 2.767676767676768 0.15712682379348974  3.1111111111111116 0  3.515151515151515 0  C 3.9191919191919196 0  4.262626262626263 0.15712682379348974  4.545454545454546 0.47138047138047146  L 9 5.420875420875422  L 13.454545454545455 0.47138047138047146  C 13.737373737373739 0.15712682379348974  14.080808080808083 0  14.484848484848484 0  C 14.88888888888889 0  15.232323232323235 0.15712682379348974  15.515151515151514 0.47138047138047146  L 17.575757575757574 2.7609427609427617  C 17.858585858585858 3.075196408529739  18 3.45679012345679  18 3.9057239057239057  C 18 4.354657687991022  17.858585858585858 4.736251402918068  17.575757575757574 5.05050505050505  L 13.121212121212121 10  L 17.575757575757574 14.949494949494948  Z " fill-rule="nonzero" fill="#000000" stroke="none" transform="matrix(1 0 0 1 812 546 )" />
  </g>
</svg>