<?xml version="1.0" encoding="utf-8"?>
<svg version="1.1" xmlns:xlink="http://www.w3.org/1999/xlink" width="27px" height="30px" xmlns="http://www.w3.org/2000/svg">
  <g transform="matrix(1 0 0 1 -361 -523 )">
    <path d="M 9 6.428571428571429  L 11.25 6.428571428571429  L 11.25 4.285714285714287  L 9 4.285714285714287  L 9 6.428571428571429  Z M 11.25 8.571428571428571  L 13.5 8.571428571428571  L 13.5 6.428571428571429  L 11.25 6.428571428571429  L 11.25 8.571428571428571  Z M 9 10.714285714285714  L 11.25 10.714285714285714  L 11.25 8.571428571428571  L 9 8.571428571428571  L 9 10.714285714285714  Z M 11.25 12.857142857142858  L 13.5 12.857142857142858  L 13.5 10.714285714285714  L 11.25 10.714285714285714  L 11.25 12.857142857142858  Z M 20.3203125 1.138392857142858  L 25.8046875 6.361607142857142  C 26.132812500000004 6.674107142857141  26.4140625 7.098214285714287  26.6484375 7.633928571428571  C 26.8828125 8.169642857142858  27 8.660714285714285  27 9.107142857142858  L 27 28.392857142857142  C 27 28.839285714285715  26.8359375 29.218749999999996  26.5078125 29.53125  C 26.179687500000004 29.843750000000004  25.78125 30  25.3125 30  L 1.6875 30  C 1.2187500000000002 30  0.8203125000000001 29.843750000000004  0.49218750000000006 29.53125  C 0.16406249999999997 29.218749999999996  0 28.839285714285715  0 28.392857142857142  L 0 1.607142857142858  C 0 1.160714285714285  0.16406249999999997 0.7812499999999989  0.49218750000000006 0.46875  C 0.8203125000000001 0.1562500000000011  1.2187500000000002 0  1.6875 0  L 17.4375 0  C 17.906250000000004 0  18.421875 0.11160714285714413  18.984375 0.33482142857142905  C 19.546875 0.558035714285714  19.9921875 0.8258928571428559  20.3203125 1.138392857142858  Z M 18.720703125 2.6450892857142874  C 18.580078125 2.5111607142857126  18.339843750000004 2.3883928571428537  18 2.2767857142857126  L 18 8.571428571428571  L 24.609375 8.571428571428571  C 24.492187500000004 8.247767857142854  24.36328125 8.018973214285714  24.22265625 7.885044642857142  L 18.720703125 2.6450892857142874  Z M 2.25 27.857142857142858  L 24.75 27.857142857142858  L 24.75 10.714285714285714  L 17.4375 10.714285714285714  C 16.96875 10.714285714285714  16.5703125 10.558035714285712  16.2421875 10.245535714285714  C 15.9140625 9.933035714285714  15.750000000000002 9.553571428571425  15.750000000000002 9.107142857142858  L 15.750000000000002 2.142857142857142  L 13.5 2.142857142857142  L 13.5 4.285714285714287  L 11.25 4.285714285714287  L 11.25 2.142857142857142  L 2.25 2.142857142857142  L 2.25 27.857142857142858  Z M 13.32421875 15.217633928571429  C 13.5234375 15.362723214285712  13.658203125 15.552455357142858  13.728515624999998 15.786830357142858  L 15.609375 21.629464285714285  C 15.703125 21.93080357142857  15.750000000000002 22.22098214285714  15.750000000000002 22.5  C 15.750000000000002 23.426339285714285  15.325195312500002 24.193638392857146  14.4755859375 24.80189732142857  C 13.625976562500002 25.410156249999996  12.55078125 25.714285714285715  11.25 25.714285714285715  C 9.94921875 25.714285714285715  8.874023437500002 25.410156249999996  8.0244140625 24.80189732142857  C 7.174804687499999 24.193638392857146  6.75 23.426339285714285  6.75 22.5  C 6.75 22.22098214285714  6.796875 21.93080357142857  6.890624999999999 21.629464285714285  C 7.136718750000001 20.926339285714285  7.839843749999999 18.716517857142858  9 15  L 9 12.857142857142858  L 11.25 12.857142857142858  L 11.25 15  L 12.638671875 15  C 12.896484375 15  13.125000000000002 15.072544642857139  13.32421875 15.217633928571429  Z M 9.6591796875 23.253348214285715  C 10.0986328125 23.465401785714285  10.62890625 23.57142857142857  11.25 23.57142857142857  C 11.87109375 23.57142857142857  12.4013671875 23.465401785714285  12.8408203125 23.253348214285715  C 13.2802734375 23.04129464285714  13.5 22.790178571428573  13.5 22.5  C 13.5 22.209821428571427  13.2802734375 21.95870535714286  12.8408203125 21.746651785714285  C 12.4013671875 21.534598214285715  11.87109375 21.42857142857143  11.25 21.42857142857143  C 10.62890625 21.42857142857143  10.0986328125 21.534598214285715  9.6591796875 21.746651785714285  C 9.2197265625 21.95870535714286  9 22.209821428571427  9 22.5  C 9 22.790178571428573  9.2197265625 23.04129464285714  9.6591796875 23.253348214285715  Z " fill-rule="nonzero" fill="#000000" stroke="none" transform="matrix(1 0 0 1 361 523 )" />
  </g>
</svg>