<?xml version="1.0" encoding="utf-8"?>
<svg version="1.1" xmlns:xlink="http://www.w3.org/1999/xlink" width="27px" height="30px" xmlns="http://www.w3.org/2000/svg">
  <g transform="matrix(1 0 0 1 -242 -523 )">
    <path d="M 20.3203125 1.138392857142858  L 25.8046875 6.361607142857142  C 26.132812500000004 6.674107142857141  26.4140625 7.098214285714287  26.6484375 7.633928571428571  C 26.8828125 8.169642857142858  27 8.660714285714285  27 9.107142857142858  L 27 28.392857142857142  C 27 28.839285714285715  26.8359375 29.218749999999996  26.5078125 29.53125  C 26.179687500000004 29.843750000000004  25.78125 30  25.3125 30  L 1.6875 30  C 1.2187500000000002 30  0.8203125000000001 29.843750000000004  0.49218750000000006 29.53125  C 0.16406249999999997 29.218749999999996  0 28.839285714285715  0 28.392857142857142  L 0 1.607142857142858  C 0 1.160714285714285  0.16406249999999997 0.7812499999999989  0.49218750000000006 0.46875  C 0.8203125000000001 0.1562500000000011  1.2187500000000002 0  1.6875 0  L 17.4375 0  C 17.906250000000004 0  18.421875 0.11160714285714413  18.984375 0.33482142857142905  C 19.546875 0.558035714285714  19.9921875 0.8258928571428559  20.3203125 1.138392857142858  Z M 18.720703125 2.6450892857142874  C 18.580078125 2.5111607142857126  18.339843750000004 2.3883928571428537  18 2.2767857142857126  L 18 8.571428571428571  L 24.609375 8.571428571428571  C 24.492187500000004 8.247767857142854  24.36328125 8.018973214285714  24.22265625 7.885044642857142  L 18.720703125 2.6450892857142874  Z M 2.25 27.857142857142858  L 24.75 27.857142857142858  L 24.75 10.714285714285714  L 17.4375 10.714285714285714  C 16.96875 10.714285714285714  16.5703125 10.558035714285712  16.2421875 10.245535714285714  C 15.9140625 9.933035714285714  15.750000000000002 9.553571428571425  15.750000000000002 9.107142857142858  L 15.750000000000002 2.142857142857142  L 2.25 2.142857142857142  L 2.25 27.857142857142858  Z M 16.875 15  L 22.5 20.357142857142858  L 22.5 25.714285714285715  L 4.5 25.714285714285715  L 4.5 22.5  L 7.875000000000001 19.285714285714285  L 10.125 21.42857142857143  L 16.875 15  Z M 10.265625 16.205357142857142  C 9.609375000000002 16.83035714285714  8.8125 17.142857142857142  7.875000000000001 17.142857142857142  C 6.937500000000001 17.142857142857142  6.140625000000001 16.83035714285714  5.484375 16.205357142857142  C 4.828125 15.580357142857144  4.5 14.82142857142857  4.5 13.928571428571429  C 4.5 13.035714285714286  4.828125 12.276785714285714  5.484375 11.651785714285714  C 6.140625000000001 11.026785714285712  6.937500000000001 10.714285714285714  7.875000000000001 10.714285714285714  C 8.8125 10.714285714285714  9.609375000000002 11.026785714285712  10.265625 11.651785714285714  C 10.921875 12.276785714285714  11.25 13.035714285714286  11.25 13.928571428571429  C 11.25 14.82142857142857  10.921875 15.580357142857144  10.265625 16.205357142857142  Z " fill-rule="nonzero" fill="#000000" stroke="none" transform="matrix(1 0 0 1 242 523 )" />
  </g>
</svg>