<?xml version="1.0" encoding="utf-8"?>
<svg version="1.1" xmlns:xlink="http://www.w3.org/1999/xlink" width="27px" height="30px" xmlns="http://www.w3.org/2000/svg">
  <g transform="matrix(1 0 0 1 -304 -523 )">
    <path d="M 20.3203125 1.138392857142858  L 25.8046875 6.361607142857142  C 26.132812500000004 6.674107142857141  26.4140625 7.098214285714287  26.6484375 7.633928571428571  C 26.8828125 8.169642857142858  27 8.660714285714285  27 9.107142857142858  L 27 28.392857142857142  C 27 28.839285714285715  26.8359375 29.218749999999996  26.5078125 29.53125  C 26.179687500000004 29.843750000000004  25.78125 30  25.3125 30  L 1.6875 30  C 1.2187500000000002 30  0.8203125000000001 29.843750000000004  0.49218750000000006 29.53125  C 0.16406249999999997 29.218749999999996  0 28.839285714285715  0 28.392857142857142  L 0 1.607142857142858  C 0 1.160714285714285  0.16406249999999997 0.7812499999999989  0.49218750000000006 0.46875  C 0.8203125000000001 0.1562500000000011  1.2187500000000002 0  1.6875 0  L 17.4375 0  C 17.906250000000004 0  18.421875 0.11160714285714413  18.984375 0.33482142857142905  C 19.546875 0.558035714285714  19.9921875 0.8258928571428559  20.3203125 1.138392857142858  Z M 18.720703125 2.6450892857142874  C 18.580078125 2.5111607142857126  18.339843750000004 2.3883928571428537  18 2.2767857142857126  L 18 8.571428571428571  L 24.609375 8.571428571428571  C 24.492187500000004 8.247767857142854  24.36328125 8.018973214285714  24.22265625 7.885044642857142  L 18.720703125 2.6450892857142874  Z M 2.25 27.857142857142858  L 24.75 27.857142857142858  L 24.75 10.714285714285714  L 17.4375 10.714285714285714  C 16.96875 10.714285714285714  16.5703125 10.558035714285712  16.2421875 10.245535714285714  C 15.9140625 9.933035714285714  15.750000000000002 9.553571428571425  15.750000000000002 9.107142857142858  L 15.750000000000002 2.142857142857142  L 2.25 2.142857142857142  L 2.25 27.857142857142858  Z M 6.75 12.857142857142858  L 13.5 12.857142857142858  C 14.109375000000002 12.857142857142858  14.636718750000002 13.06919642857143  15.08203125 13.493303571428571  C 15.52734375 13.917410714285714  15.750000000000002 14.419642857142856  15.750000000000002 15  L 15.750000000000002 21.42857142857143  C 15.750000000000002 22.00892857142857  15.52734375 22.51116071428571  15.08203125 22.935267857142858  C 14.636718750000002 23.359374999999996  14.109375000000002 23.57142857142857  13.5 23.57142857142857  L 6.75 23.57142857142857  C 6.140625000000001 23.57142857142857  5.613281250000001 23.359374999999996  5.16796875 22.935267857142858  C 4.72265625 22.51116071428571  4.5 22.00892857142857  4.5 21.42857142857143  L 4.5 15  C 4.5 14.419642857142856  4.72265625 13.917410714285714  5.16796875 13.493303571428571  C 5.613281250000001 13.06919642857143  6.140625000000001 12.857142857142858  6.75 12.857142857142858  Z M 21.9375 12.857142857142858  C 21.984375 12.857142857142858  22.0546875 12.868303571428573  22.1484375 12.890625  C 22.382812500000004 12.979910714285714  22.5 13.147321428571427  22.5 13.392857142857142  L 22.5 23.035714285714285  C 22.5 23.281250000000004  22.382812500000004 23.448660714285715  22.1484375 23.53794642857143  C 22.0546875 23.560267857142854  21.984375 23.57142857142857  21.9375 23.57142857142857  C 21.7734375 23.57142857142857  21.638671875 23.521205357142858  21.533203125 23.42075892857143  L 16.875 18.96763392857143  L 16.875 17.4609375  L 21.533203125 13.0078125  C 21.638671875 12.907366071428571  21.7734375 12.857142857142858  21.9375 12.857142857142858  Z " fill-rule="nonzero" fill="#000000" stroke="none" transform="matrix(1 0 0 1 304 523 )" />
  </g>
</svg>