<?xml version="1.0" encoding="utf-8"?>
<svg version="1.1" xmlns:xlink="http://www.w3.org/1999/xlink" width="25px" height="25px" xmlns="http://www.w3.org/2000/svg">
  <g transform="matrix(1 0 0 1 -565 -561 )">
    <path d="M 24.734933035714285 20.79190340909091  C 24.911644345238095 21.01680871212121  25 21.283143939393938  25 21.59090909090909  L 25 23.863636363636363  C 25 24.171401515151516  24.911644345238095 24.43773674242424  24.734933035714285 24.662642045454543  C 24.558221726190478 24.88754734848485  24.348958333333336 25  24.107142857142858 25  L 0.8928571428571428 25  C 0.6510416666666667 25  0.4417782738095238 24.88754734848485  0.2650669642857143 24.662642045454543  C 0.08835565476190477 24.43773674242424  0 24.171401515151516  0 23.863636363636363  L 0 21.59090909090909  C 0 21.283143939393938  0.08835565476190477 21.01680871212121  0.2650669642857143 20.79190340909091  C 0.4417782738095238 20.566998106060606  0.6510416666666667 20.454545454545453  0.8928571428571428 20  L 24.107142857142858 20  C 24.348958333333336 20.454545454545453  24.558221726190478 20.566998106060606  24.734933035714285 20.79190340909091  Z M 24.734933035714285 13.973721590909092  C 24.911644345238095 14.198626893939393  25 14.464962121212121  25 14.77272727272727  L 25 17.045454545454547  C 25 17.353219696969695  24.911644345238095 17.619554924242422  24.734933035714285 17.84446022727273  C 24.558221726190478 18.069365530303035  24.348958333333336 18.181818181818183  24.107142857142858 18  L 0.8928571428571428 18  C 0.6510416666666667 18.181818181818183  0.4417782738095238 18.069365530303035  0.2650669642857143 17.84446022727273  C 0.08835565476190477 17.619554924242422  0 17.353219696969695  0 17.045454545454547  L 0 14.77272727272727  C 0 14.464962121212121  0.08835565476190477 14.198626893939393  0.2650669642857143 13.973721590909092  C 0.4417782738095238 13.748816287878785  0.6510416666666667 13.636363636363635  0.8928571428571428 13.636363636363635  L 24.107142857142858 13.636363636363635  C 24.348958333333336 13.636363636363635  24.558221726190478 13.748816287878785  24.734933035714285 13.973721590909092  Z M 24.734933035714285 7.155539772727273  C 24.911644345238095 7.380445075757574  25 7.646780303030301  25 7.954545454545456  L 25 10.227272727272727  C 25 10.535037878787879  24.911644345238095 10.801373106060606  24.734933035714285 11.026278409090908  C 24.558221726190478 11.251183712121213  24.348958333333336 11.363636363636365  24.107142857142858 11.363636363636365  L 0.8928571428571428 11.363636363636365  C 0.6510416666666667 11.363636363636365  0.4417782738095238 11.251183712121213  0.2650669642857143 11.026278409090908  C 0.08835565476190477 10.801373106060606  0 10.535037878787879  0 10.227272727272727  L 0 7.954545454545456  C 0 7.646780303030301  0.08835565476190477 7.380445075757574  0.2650669642857143 7.155539772727273  C 0.4417782738095238 6.93063446969697  0.6510416666666667 6.8181818181818175  0.8928571428571428 7  L 24.107142857142858 7  C 24.348958333333336 6.8181818181818175  24.558221726190478 6.93063446969697  24.734933035714285 7.155539772727273  Z M 24.734933035714285 0.3373579545454558  C 24.911644345238095 0.5622632575757541  25 0.8285984848484834  25 1.1363636363636354  L 25 3.4090909090909087  C 25 3.716856060606058  24.911644345238095 3.983191287878787  24.734933035714285 4.208096590909091  C 24.558221726190478 4.433001893939393  24.348958333333336 4.545454545454544  24.107142857142858 5  L 0.8928571428571428 5  C 0.6510416666666667 4.545454545454544  0.4417782738095238 4.433001893939393  0.2650669642857143 4.208096590909091  C 0.08835565476190477 3.983191287878787  0 3.716856060606058  0 3.4090909090909087  L 0 1.1363636363636354  C 0 0.8285984848484834  0.08835565476190477 0.5622632575757541  0.2650669642857143 0.3373579545454558  C 0.4417782738095238 0.11245265151514916  0.6510416666666667 0  0.8928571428571428 0  L 24.107142857142858 0  C 24.348958333333336 0  24.558221726190478 0.11245265151514916  24.734933035714285 0.3373579545454558  Z " fill-rule="nonzero" fill="#000000" stroke="none" transform="matrix(1 0 0 1 565 561 )" />
  </g>
</svg>