<?xml version="1.0" encoding="utf-8"?>
<svg version="1.1" xmlns:xlink="http://www.w3.org/1999/xlink" width="25px" height="25px" xmlns="http://www.w3.org/2000/svg">
  <g transform="matrix(1 0 0 1 -505 -561 )">
    <path d="M 24.734933035714285 20.79190340909091  C 24.911644345238095 21.01680871212121  25 21.283143939393938  25 21.59090909090909  L 25 23.863636363636363  C 25 24.171401515151516  24.911644345238095 24.43773674242424  24.734933035714285 24.662642045454543  C 24.558221726190478 24.88754734848485  24.348958333333336 25  24.107142857142858 25  L 0.8928571428571428 25  C 0.6510416666666667 25  0.4417782738095238 24.88754734848485  0.2650669642857143 24.662642045454543  C 0.08835565476190477 24.43773674242424  0 24.171401515151516  0 23.863636363636363  L 0 21.59090909090909  C 0 21.283143939393938  0.08835565476190477 21.01680871212121  0.2650669642857143 20.79190340909091  C 0.4417782738095238 20.566998106060606  0.6510416666666667 20.454545454545453  0.8928571428571428 20  L 24.107142857142858 20  C 24.348958333333336 20.454545454545453  24.558221726190478 20.566998106060606  24.734933035714285 20.79190340909091  Z M 19.377790178571427 13.973721590909092  C 19.554501488095237 14.198626893939393  19.642857142857142 14.464962121212121  19.642857142857142 14.77272727272727  L 19.642857142857142 17.045454545454547  C 19.642857142857142 17.353219696969695  19.554501488095237 17.619554924242422  19.377790178571427 17.84446022727273  C 19.20107886904762 18.069365530303035  18.991815476190478 18.181818181818183  18.75 18  L 6.25 18  C 6.008184523809524 18.181818181818183  5.798921130952381 18.069365530303035  5.622209821428571 17.84446022727273  C 5.445498511904762 17.619554924242422  5.357142857142857 17.353219696969695  5.357142857142857 17.045454545454547  L 5.357142857142857 14.77272727272727  C 5.357142857142857 14.464962121212121  5.445498511904762 14.198626893939393  5.622209821428571 13.973721590909092  C 5.798921130952381 13.748816287878785  6.008184523809524 13.636363636363635  6.25 13.636363636363635  L 18.75 13.636363636363635  C 18.991815476190478 13.636363636363635  19.20107886904762 13.748816287878785  19.377790178571427 13.973721590909092  Z M 22.94921875 7.155539772727273  C 23.12593005952381 7.380445075757574  23.214285714285715 7.646780303030301  23.214285714285715 7.954545454545456  L 23.214285714285715 10.227272727272727  C 23.214285714285715 10.535037878787879  23.12593005952381 10.801373106060606  22.94921875 11.026278409090908  C 22.772507440476193 11.251183712121213  22.56324404761905 11.363636363636365  22.321428571428573 11.363636363636365  L 2.6785714285714284 11.363636363636365  C 2.4367559523809526 11.363636363636365  2.2274925595238098 11.251183712121213  2.05078125 11.026278409090908  C 1.8740699404761907 10.801373106060606  1.7857142857142856 10.535037878787879  1.7857142857142856 10.227272727272727  L 1.7857142857142856 7.954545454545456  C 1.7857142857142856 7.646780303030301  1.8740699404761907 7.380445075757574  2.05078125 7.155539772727273  C 2.2274925595238098 6.93063446969697  2.4367559523809526 6.8181818181818175  2.6785714285714284 7  L 22.321428571428573 7  C 22.56324404761905 6.8181818181818175  22.772507440476193 6.93063446969697  22.94921875 7.155539772727273  Z M 17.592075892857142 0.3373579545454558  C 17.768787202380953 0.5622632575757541  17.857142857142858 0.8285984848484834  17.857142857142858 1.1363636363636354  L 17.857142857142858 3.4090909090909087  C 17.857142857142858 3.716856060606058  17.768787202380953 3.983191287878787  17.592075892857142 4.208096590909091  C 17.415364583333336 4.433001893939393  17.206101190476193 4.545454545454544  16.964285714285715 4.545454545454544  L 8.035714285714286 4.545454545454544  C 7.793898809523811 4.545454545454544  7.584635416666667 4.433001893939393  7.407924107142858 4.208096590909091  C 7.231212797619048 3.983191287878787  7.142857142857142 3.716856060606058  7.142857142857142 3.4090909090909087  L 7.142857142857142 1.1363636363636354  C 7.142857142857142 0.8285984848484834  7.231212797619048 0.5622632575757541  7.407924107142858 0.3373579545454558  C 7.584635416666667 0.11245265151514916  7.793898809523811 0  8.035714285714286 0  L 16.964285714285715 0  C 17.206101190476193 0  17.415364583333336 0.11245265151514916  17.592075892857142 0.3373579545454558  Z " fill-rule="nonzero" fill="#000000" stroke="none" transform="matrix(1 0 0 1 505 561 )" />
  </g>
</svg>