<?xml version="1.0" encoding="utf-8"?>
<svg version="1.1" xmlns:xlink="http://www.w3.org/1999/xlink" width="17px" height="18px" xmlns="http://www.w3.org/2000/svg">
  <g transform="matrix(1 0 0 1 -236 -465 )">
    <path d="M 13.065034965034966 9  L 16.227272727272727 10.804687500000002  C 16.591841491841492 11.0078125  16.82762237762238 11.310546874999998  16.934615384615384 11.712890624999998  C 17.041608391608392 12.115234375  16.992074592074594 12.49609375  16.786013986013987 12.855468749999998  L 16.025174825174826 14.14453125  C 15.81911421911422 14.503906250000002  15.512004662004664 14.736328125  15.103846153846153 14.841796875  C 14.695687645687647 14.947265625  14.309324009324012 14.8984375  13.944755244755244 14.6953125  L 10.782517482517482 12.90234375  L 10.782517482517482 16.5  C 10.782517482517482 16.90625  10.631934731934733 17.2578125  10.33076923076923 17.5546875  C 10.029603729603732 17.8515625  9.672960372960373 18  9.26083916083916 18  L 7.739160839160839 18  C 7.327039627039627 18  6.970396270396271 17.8515625  6.6692307692307695 17.5546875  C 6.368065268065269 17.2578125  6.217482517482517 16.90625  6.217482517482517 16.5  L 6.217482517482517 12.90234375  L 3.055244755244755 14.6953125  C 2.690675990675991 14.8984375  2.304312354312355 14.947265625  1.8961538461538463 14.841796875  C 1.4879953379953383 14.736328125  1.1808857808857813 14.503906250000002  0.9748251748251748 14.14453125  L 0.213986013986014 12.855468749999998  C 0.007925407925407982 12.49609375  -0.04160839160839161 12.115234375  0.06538461538461539 11.712890624999998  C 0.17237762237762239 11.310546874999998  0.4081585081585083 11.0078125  0.7727272727272727 10.804687500000002  L 3.934965034965035 9  L 0.7727272727272727 7.195312500000001  C 0.4081585081585083 6.992187499999999  0.17237762237762239 6.689453125  0.06538461538461539 6.287109374999999  C -0.04160839160839161 5.884765624999999  0.007925407925407982 5.503906249999997  0.213986013986014 5.144531249999999  L 0.9748251748251748 3.855468750000001  C 1.1808857808857813 3.4960937499999982  1.4879953379953383 3.263671874999999  1.8961538461538463 3.158203124999999  C 2.304312354312355 3.052734374999999  2.690675990675991 3.1015624999999982  3.055244755244755 3.3046875  L 6.217482517482517 5.09765625  L 6.217482517482517 1.5000000000000007  C 6.217482517482517 1.0937499999999991  6.368065268065269 0.7421874999999991  6.6692307692307695 0.44531250000000067  C 6.970396270396271 0.14843749999999822  7.327039627039627 0  7.739160839160839 0  L 9.26083916083916 0  C 9.672960372960373 0  10.029603729603732 0.14843749999999822  10.33076923076923 0.44531250000000067  C 10.631934731934733 0.7421874999999991  10.782517482517482 1.0937499999999991  10.782517482517482 1.5000000000000007  L 10.782517482517482 5.09765625  L 13.944755244755244 3.3046875  C 14.309324009324012 3.1015624999999982  14.695687645687647 3.052734374999999  15.103846153846153 3.158203124999999  C 15.512004662004664 3.263671874999999  15.81911421911422 3.4960937499999982  16.025174825174826 3.855468750000001  L 16.786013986013987 5.144531249999999  C 16.992074592074594 5.503906249999997  17.041608391608392 5.884765624999999  16.934615384615384 6.287109374999999  C 16.82762237762238 6.689453125  16.591841491841492 6.992187499999999  16.227272727272727 7.195312500000001  L 13.065034965034966 9  Z " fill-rule="nonzero" fill="#0000ff" stroke="none" transform="matrix(1 0 0 1 236 465 )" />
  </g>
</svg>