<?xml version="1.0" encoding="utf-8"?>
<svg version="1.1" xmlns:xlink="http://www.w3.org/1999/xlink" width="84px" height="109px" xmlns="http://www.w3.org/2000/svg">
  <g transform="matrix(1 0 0 1 -238 -559 )">
    <path d="M 3.8181818181818183 0  L 80.18181818181819 0  C 81.2159090909091 0  82.11079545454547 0.385230654761914  82.86647727272727 1.1556919642857177  C 83.6221590909091 1.9261532738095095  84 2.8385416666666625  84 3.892857142857141  L 84 105.10714285714286  C 84 106.16145833333333  83.6221590909091 107.07384672619047  82.86647727272727 107.84430803571428  C 82.11079545454547 108.6147693452381  81.2159090909091 109  80.18181818181819 109  L 3.8181818181818183 109  C 2.7840909090909096 109  1.8892045454545454 108.6147693452381  1.1335227272727273 107.84430803571428  C 0.37784090909090906 107.07384672619047  0 106.16145833333333  0 105.10714285714286  L 0 3.892857142857141  C 0 2.8385416666666625  0.37784090909090906 1.9261532738095095  1.1335227272727273 1.1556919642857177  C 1.8892045454545454 0.385230654761914  2.7840909090909096 0  3.8181818181818183 0  Z M 31.082386363636367 16.118861607142858  C 30.72443181818182 16.48381696428572  30.545454545454547 16.950148809523803  30.545454545454547 17.517857142857142  L 30.545454545454547 21.41071428571428  C 30.545454545454547 21.97842261904762  30.72443181818182 22.44475446428572  31.082386363636367 22.809709821428577  C 31.440340909090907 23.174665178571423  31.89772727272728 23.357142857142858  32.45454545454545 23.357142857142858  L 36.27272727272727 23.357142857142858  C 36.82954545454545 23.357142857142858  37.28693181818182 23.174665178571423  37.64488636363637 22.809709821428577  C 38.00284090909091 22.44475446428572  38.18181818181818 21.97842261904762  38.18181818181818 21.41071428571428  L 38.18181818181818 17.517857142857142  C 38.18181818181818 16.950148809523803  38.00284090909091 16.48381696428572  37.64488636363637 16.118861607142858  C 37.28693181818182 15.75390625  36.82954545454545 15.571428571428577  36.27272727272727 15.571428571428577  L 32.45454545454545 15.571428571428577  C 31.89772727272728 15.571428571428577  31.440340909090907 15.75390625  31.082386363636367 16.118861607142858  Z M 31.082386363636367 31.690290178571423  C 30.72443181818182 32.055245535714285  30.545454545454547 32.521577380952365  30.545454545454547 33.089285714285715  L 30.545454545454547 36.98214285714286  C 30.545454545454547 37.54985119047618  30.72443181818182 38.016183035714285  31.082386363636367 38.38113839285714  C 31.440340909090907 38.74609375  31.89772727272728 38.92857142857142  32.45454545454545 38.92857142857142  L 36.27272727272727 38.92857142857142  C 36.82954545454545 38.92857142857142  37.28693181818182 38.74609375  37.64488636363637 38.38113839285714  C 38.00284090909091 38.016183035714285  38.18181818181818 37.54985119047618  38.18181818181818 36.98214285714286  L 38.18181818181818 33.089285714285715  C 38.18181818181818 32.521577380952365  38.00284090909091 32.055245535714285  37.64488636363637 31.690290178571423  C 37.28693181818182 31.325334821428577  36.82954545454545 31.142857142857142  36.27272727272727 31.142857142857142  L 32.45454545454545 31.142857142857142  C 31.89772727272728 31.142857142857142  31.440340909090907 31.325334821428577  31.082386363636367 31.690290178571423  Z M 31.082386363636367 47.26171875  C 30.72443181818182 47.62667410714286  30.545454545454547 48.09300595238094  30.545454545454547 48.660714285714285  L 30.545454545454547 52.55357142857142  C 30.545454545454547 53.12127976190476  30.72443181818182 53.58761160714286  31.082386363636367 53.952566964285715  C 31.440340909090907 54.31752232142858  31.89772727272728 54.5  32.45454545454545 54.5  L 36.27272727272727 54.5  C 36.82954545454545 54.5  37.28693181818182 54.31752232142858  37.64488636363637 53.952566964285715  C 38.00284090909091 53.58761160714286  38.18181818181818 53.12127976190476  38.18181818181818 52.55357142857142  L 38.18181818181818 48.660714285714285  C 38.18181818181818 48.09300595238094  38.00284090909091 47.62667410714286  37.64488636363637 47.26171875  C 37.28693181818182 46.89676339285714  36.82954545454545 46.714285714285715  36.27272727272727 46.714285714285715  L 32.45454545454545 46.714285714285715  C 31.89772727272728 46.714285714285715  31.440340909090907 46.89676339285714  31.082386363636367 47.26171875  Z M 31.082386363636367 62.83314732142856  C 30.72443181818182 63.19810267857144  30.545454545454547 63.66443452380952  30.545454545454547 64.23214285714286  L 30.545454545454547 68.125  C 30.545454545454547 68.69270833333333  30.72443181818182 69.15904017857143  31.082386363636367 69.52399553571428  C 31.440340909090907 69.88895089285714  31.89772727272728 70.07142857142857  32.45454545454545 70.07142857142857  L 36.27272727272727 70.07142857142857  C 36.82954545454545 70.07142857142857  37.28693181818182 69.88895089285714  37.64488636363637 69.52399553571428  C 38.00284090909091 69.15904017857143  38.18181818181818 68.69270833333333  38.18181818181818 68.125  L 38.18181818181818 64.23214285714286  C 38.18181818181818 63.66443452380952  38.00284090909091 63.19810267857144  37.64488636363637 62.83314732142856  C 37.28693181818182 62.468191964285715  36.82954545454545 62.285714285714285  36.27272727272727 62.285714285714285  L 32.45454545454545 62.285714285714285  C 31.89772727272728 62.285714285714285  31.440340909090907 62.468191964285715  31.082386363636367 62.83314732142856  Z M 22.372159090909093 85.09542410714286  C 22.730113636363633 84.73046875  22.909090909090907 84.2641369047619  22.909090909090907 83.69642857142857  L 22.909090909090907 79.80357142857143  C 22.909090909090907 79.2358630952381  22.730113636363633 78.76953125  22.372159090909093 78.40457589285714  C 22.014204545454547 78.03962053571428  21.556818181818183 77.85714285714286  21 77.85714285714286  L 17.181818181818183 77.85714285714286  C 16.625 77.85714285714286  16.167613636363637 78.03962053571428  15.80965909090909 78.40457589285714  C 15.451704545454547 78.76953125  15.272727272727273 79.2358630952381  15.272727272727273 79.80357142857143  L 15.272727272727273 83.69642857142857  C 15.272727272727273 84.2641369047619  15.451704545454547 84.73046875  15.80965909090909 85.09542410714286  C 16.167613636363637 85.46037946428572  16.625 85.64285714285714  17.181818181818183 85.64285714285714  L 21 85.64285714285714  C 21.556818181818183 85.64285714285714  22.014204545454547 85.46037946428572  22.372159090909093 85.09542410714286  Z M 22.372159090909093 69.52399553571428  C 22.730113636363633 69.15904017857143  22.909090909090907 68.69270833333333  22.909090909090907 68.125  L 22.909090909090907 64.23214285714286  C 22.909090909090907 63.66443452380952  22.730113636363633 63.19810267857144  22.372159090909093 62.83314732142856  C 22.014204545454547 62.468191964285715  21.556818181818183 62.285714285714285  21 62.285714285714285  L 17.181818181818183 62.285714285714285  C 16.625 62.285714285714285  16.167613636363637 62.468191964285715  15.80965909090909 62.83314732142856  C 15.451704545454547 63.19810267857144  15.272727272727273 63.66443452380952  15.272727272727273 64.23214285714286  L 15.272727272727273 68.125  C 15.272727272727273 68.69270833333333  15.451704545454547 69.15904017857143  15.80965909090909 69.52399553571428  C 16.167613636363637 69.88895089285714  16.625 70.07142857142857  17.181818181818183 70.07142857142857  L 21 70.07142857142857  C 21.556818181818183 70.07142857142857  22.014204545454547 69.88895089285714  22.372159090909093 69.52399553571428  Z M 22.372159090909093 53.952566964285715  C 22.730113636363633 53.58761160714286  22.909090909090907 53.12127976190476  22.909090909090907 52.55357142857142  L 22.909090909090907 48.660714285714285  C 22.909090909090907 48.09300595238094  22.730113636363633 47.62667410714286  22.372159090909093 47.26171875  C 22.014204545454547 46.89676339285714  21.556818181818183 46.714285714285715  21 46.714285714285715  L 17.181818181818183 46.714285714285715  C 16.625 46.714285714285715  16.167613636363637 46.89676339285714  15.80965909090909 47.26171875  C 15.451704545454547 47.62667410714286  15.272727272727273 48.09300595238094  15.272727272727273 48.660714285714285  L 15.272727272727273 52.55357142857142  C 15.272727272727273 53.12127976190476  15.451704545454547 53.58761160714286  15.80965909090909 53.952566964285715  C 16.167613636363637 54.31752232142858  16.625 54.5  17.181818181818183 54.5  L 21 54.5  C 21.556818181818183 54.5  22.014204545454547 54.31752232142858  22.372159090909093 53.952566964285715  Z M 22.372159090909093 38.38113839285714  C 22.730113636363633 38.016183035714285  22.909090909090907 37.54985119047618  22.909090909090907 36.98214285714286  L 22.909090909090907 33.089285714285715  C 22.909090909090907 32.521577380952365  22.730113636363633 32.055245535714285  22.372159090909093 31.690290178571423  C 22.014204545454547 31.325334821428577  21.556818181818183 31.142857142857142  21 31.142857142857142  L 17.181818181818183 31.142857142857142  C 16.625 31.142857142857142  16.167613636363637 31.325334821428577  15.80965909090909 31.690290178571423  C 15.451704545454547 32.055245535714285  15.272727272727273 32.521577380952365  15.272727272727273 33.089285714285715  L 15.272727272727273 36.98214285714286  C 15.272727272727273 37.54985119047618  15.451704545454547 38.016183035714285  15.80965909090909 38.38113839285714  C 16.167613636363637 38.74609375  16.625 38.92857142857142  17.181818181818183 38.92857142857142  L 21 38.92857142857142  C 21.556818181818183 38.92857142857142  22.014204545454547 38.74609375  22.372159090909093 38.38113839285714  Z M 22.372159090909093 22.809709821428577  C 22.730113636363633 22.44475446428572  22.909090909090907 21.97842261904762  22.909090909090907 21.41071428571428  L 22.909090909090907 17.517857142857142  C 22.909090909090907 16.950148809523803  22.730113636363633 16.48381696428572  22.372159090909093 16.118861607142858  C 22.014204545454547 15.75390625  21.556818181818183 15.571428571428577  21 15.571428571428577  L 17.181818181818183 15.571428571428577  C 16.625 15.571428571428577  16.167613636363637 15.75390625  15.80965909090909 16.118861607142858  C 15.451704545454547 16.48381696428572  15.272727272727273 16.950148809523803  15.272727272727273 17.517857142857142  L 15.272727272727273 21.41071428571428  C 15.272727272727273 21.97842261904762  15.451704545454547 22.44475446428572  15.80965909090909 22.809709821428577  C 16.167613636363637 23.174665178571423  16.625 23.357142857142858  17.181818181818183 23.357142857142858  L 21 23.357142857142858  C 21.556818181818183 23.357142857142858  22.014204545454547 23.174665178571423  22.372159090909093 22.809709821428577  Z M 52.91761363636364 100.66685267857142  C 53.27556818181819 100.30189732142858  53.45454545454545 99.83556547619047  53 99.26785714285714  L 53 87.58928571428572  C 53.45454545454545 87.0215773809524  53.27556818181819 86.55524553571428  52.91761363636364 86.19029017857143  C 52.55965909090909 85.82533482142857  52.10227272727273 85.64285714285714  51.54545454545455 85  L 32.45454545454545 85  C 31.89772727272728 85.64285714285714  31.440340909090907 85.82533482142857  31.082386363636367 86.19029017857143  C 30.72443181818182 86.55524553571428  30.545454545454547 87.0215773809524  31 87.58928571428572  L 31 99.26785714285714  C 30.545454545454547 99.83556547619047  30.72443181818182 100.30189732142858  31.082386363636367 100.66685267857142  C 31.440340909090907 101.03180803571428  31.89772727272728 101.21428571428572  32.45454545454545 101  L 51.54545454545455 101  C 52.10227272727273 101.21428571428572  52.55965909090909 101.03180803571428  52.91761363636364 100.66685267857142  Z M 52.91761363636364 69.52399553571428  C 53.27556818181819 69.15904017857143  53.45454545454545 68.69270833333333  53.45454545454545 68.125  L 53.45454545454545 64.23214285714286  C 53.45454545454545 63.66443452380952  53.27556818181819 63.19810267857144  52.91761363636364 62.83314732142856  C 52.55965909090909 62.468191964285715  52.10227272727273 62.285714285714285  51.54545454545455 62.285714285714285  L 47.727272727272734 62.285714285714285  C 47.170454545454554 62.285714285714285  46.71306818181819 62.468191964285715  46.35511363636364 62.83314732142856  C 45.99715909090909 63.19810267857144  45.81818181818181 63.66443452380952  45.81818181818181 64.23214285714286  L 45.81818181818181 68.125  C 45.81818181818181 68.69270833333333  45.99715909090909 69.15904017857143  46.35511363636364 69.52399553571428  C 46.71306818181819 69.88895089285714  47.170454545454554 70.07142857142857  47.727272727272734 70.07142857142857  L 51.54545454545455 70.07142857142857  C 52.10227272727273 70.07142857142857  52.55965909090909 69.88895089285714  52.91761363636364 69.52399553571428  Z M 52.91761363636364 53.952566964285715  C 53.27556818181819 53.58761160714286  53.45454545454545 53.12127976190476  53.45454545454545 52.55357142857142  L 53.45454545454545 48.660714285714285  C 53.45454545454545 48.09300595238094  53.27556818181819 47.62667410714286  52.91761363636364 47.26171875  C 52.55965909090909 46.89676339285714  52.10227272727273 46.714285714285715  51.54545454545455 46.714285714285715  L 47.727272727272734 46.714285714285715  C 47.170454545454554 46.714285714285715  46.71306818181819 46.89676339285714  46.35511363636364 47.26171875  C 45.99715909090909 47.62667410714286  45.81818181818181 48.09300595238094  45.81818181818181 48.660714285714285  L 45.81818181818181 52.55357142857142  C 45.81818181818181 53.12127976190476  45.99715909090909 53.58761160714286  46.35511363636364 53.952566964285715  C 46.71306818181819 54.31752232142858  47.170454545454554 54.5  47.727272727272734 54.5  L 51.54545454545455 54.5  C 52.10227272727273 54.5  52.55965909090909 54.31752232142858  52.91761363636364 53.952566964285715  Z M 52.91761363636364 38.38113839285714  C 53.27556818181819 38.016183035714285  53.45454545454545 37.54985119047618  53.45454545454545 36.98214285714286  L 53.45454545454545 33.089285714285715  C 53.45454545454545 32.521577380952365  53.27556818181819 32.055245535714285  52.91761363636364 31.690290178571423  C 52.55965909090909 31.325334821428577  52.10227272727273 31.142857142857142  51.54545454545455 31.142857142857142  L 47.727272727272734 31.142857142857142  C 47.170454545454554 31.142857142857142  46.71306818181819 31.325334821428577  46.35511363636364 31.690290178571423  C 45.99715909090909 32.055245535714285  45.81818181818181 32.521577380952365  45.81818181818181 33.089285714285715  L 45.81818181818181 36.98214285714286  C 45.81818181818181 37.54985119047618  45.99715909090909 38.016183035714285  46.35511363636364 38.38113839285714  C 46.71306818181819 38.74609375  47.170454545454554 38.92857142857142  47.727272727272734 38.92857142857142  L 51.54545454545455 38.92857142857142  C 52.10227272727273 38.92857142857142  52.55965909090909 38.74609375  52.91761363636364 38.38113839285714  Z M 52.91761363636364 22.809709821428577  C 53.27556818181819 22.44475446428572  53.45454545454545 21.97842261904762  53.45454545454545 21.41071428571428  L 53.45454545454545 17.517857142857142  C 53.45454545454545 16.950148809523803  53.27556818181819 16.48381696428572  52.91761363636364 16.118861607142858  C 52.55965909090909 15.75390625  52.10227272727273 15.571428571428577  51.54545454545455 15.571428571428577  L 47.727272727272734 15.571428571428577  C 47.170454545454554 15.571428571428577  46.71306818181819 15.75390625  46.35511363636364 16.118861607142858  C 45.99715909090909 16.48381696428572  45.81818181818181 16.950148809523803  45.81818181818181 17.517857142857142  L 45.81818181818181 21.41071428571428  C 45.81818181818181 21.97842261904762  45.99715909090909 22.44475446428572  46.35511363636364 22.809709821428577  C 46.71306818181819 23.174665178571423  47.170454545454554 23.357142857142858  47.727272727272734 23.357142857142858  L 51.54545454545455 23.357142857142858  C 52.10227272727273 23.357142857142858  52.55965909090909 23.174665178571423  52.91761363636364 22.809709821428577  Z M 68.1903409090909 85.09542410714286  C 68.54829545454545 84.73046875  68.72727272727273 84.2641369047619  68.72727272727273 83.69642857142857  L 68.72727272727273 79.80357142857143  C 68.72727272727273 79.2358630952381  68.54829545454545 78.76953125  68.1903409090909 78.40457589285714  C 67.83238636363636 78.03962053571428  67.37500000000001 77.85714285714286  66.81818181818181 77.85714285714286  L 63 77.85714285714286  C 62.44318181818182 77.85714285714286  61.98579545454545 78.03962053571428  61.62784090909091 78.40457589285714  C 61.26988636363636 78.76953125  61.09090909090909 79.2358630952381  61.09090909090909 79.80357142857143  L 61.09090909090909 83.69642857142857  C 61.09090909090909 84.2641369047619  61.26988636363636 84.73046875  61.62784090909091 85.09542410714286  C 61.98579545454545 85.46037946428572  62.44318181818182 85.64285714285714  63 85.64285714285714  L 66.81818181818181 85.64285714285714  C 67.37500000000001 85.64285714285714  67.83238636363636 85.46037946428572  68.1903409090909 85.09542410714286  Z M 68.1903409090909 69.52399553571428  C 68.54829545454545 69.15904017857143  68.72727272727273 68.69270833333333  68.72727272727273 68.125  L 68.72727272727273 64.23214285714286  C 68.72727272727273 63.66443452380952  68.54829545454545 63.19810267857144  68.1903409090909 62.83314732142856  C 67.83238636363636 62.468191964285715  67.37500000000001 62.285714285714285  66.81818181818181 62.285714285714285  L 63 62.285714285714285  C 62.44318181818182 62.285714285714285  61.98579545454545 62.468191964285715  61.62784090909091 62.83314732142856  C 61.26988636363636 63.19810267857144  61.09090909090909 63.66443452380952  61.09090909090909 64.23214285714286  L 61.09090909090909 68.125  C 61.09090909090909 68.69270833333333  61.26988636363636 69.15904017857143  61.62784090909091 69.52399553571428  C 61.98579545454545 69.88895089285714  62.44318181818182 70.07142857142857  63 70.07142857142857  L 66.81818181818181 70.07142857142857  C 67.37500000000001 70.07142857142857  67.83238636363636 69.88895089285714  68.1903409090909 69.52399553571428  Z M 68.1903409090909 53.952566964285715  C 68.54829545454545 53.58761160714286  68.72727272727273 53.12127976190476  68.72727272727273 52.55357142857142  L 68.72727272727273 48.660714285714285  C 68.72727272727273 48.09300595238094  68.54829545454545 47.62667410714286  68.1903409090909 47.26171875  C 67.83238636363636 46.89676339285714  67.37500000000001 46.714285714285715  66.81818181818181 46.714285714285715  L 63 46.714285714285715  C 62.44318181818182 46.714285714285715  61.98579545454545 46.89676339285714  61.62784090909091 47.26171875  C 61.26988636363636 47.62667410714286  61.09090909090909 48.09300595238094  61.09090909090909 48.660714285714285  L 61.09090909090909 52.55357142857142  C 61.09090909090909 53.12127976190476  61.26988636363636 53.58761160714286  61.62784090909091 53.952566964285715  C 61.98579545454545 54.31752232142858  62.44318181818182 54.5  63 54.5  L 66.81818181818181 54.5  C 67.37500000000001 54.5  67.83238636363636 54.31752232142858  68.1903409090909 53.952566964285715  Z M 68.1903409090909 38.38113839285714  C 68.54829545454545 38.016183035714285  68.72727272727273 37.54985119047618  68.72727272727273 36.98214285714286  L 68.72727272727273 33.089285714285715  C 68.72727272727273 32.521577380952365  68.54829545454545 32.055245535714285  68.1903409090909 31.690290178571423  C 67.83238636363636 31.325334821428577  67.37500000000001 31.142857142857142  66.81818181818181 31.142857142857142  L 63 31.142857142857142  C 62.44318181818182 31.142857142857142  61.98579545454545 31.325334821428577  61.62784090909091 31.690290178571423  C 61.26988636363636 32.055245535714285  61.09090909090909 32.521577380952365  61.09090909090909 33.089285714285715  L 61.09090909090909 36.98214285714286  C 61.09090909090909 37.54985119047618  61.26988636363636 38.016183035714285  61.62784090909091 38.38113839285714  C 61.98579545454545 38.74609375  62.44318181818182 38.92857142857142  63 38.92857142857142  L 66.81818181818181 38.92857142857142  C 67.37500000000001 38.92857142857142  67.83238636363636 38.74609375  68.1903409090909 38.38113839285714  Z M 68.1903409090909 22.809709821428577  C 68.54829545454545 22.44475446428572  68.72727272727273 21.97842261904762  68.72727272727273 21.41071428571428  L 68.72727272727273 17.517857142857142  C 68.72727272727273 16.950148809523803  68.54829545454545 16.48381696428572  68.1903409090909 16.118861607142858  C 67.83238636363636 15.75390625  67.37500000000001 15.571428571428577  66.81818181818181 15.571428571428577  L 63 15.571428571428577  C 62.44318181818182 15.571428571428577  61.98579545454545 15.75390625  61.62784090909091 16.118861607142858  C 61.26988636363636 16.48381696428572  61.09090909090909 16.950148809523803  61.09090909090909 17.517857142857142  L 61.09090909090909 21.41071428571428  C 61.09090909090909 21.97842261904762  61.26988636363636 22.44475446428572  61.62784090909091 22.809709821428577  C 61.98579545454545 23.174665178571423  62.44318181818182 23.357142857142858  63 23.357142857142858  L 66.81818181818181 23.357142857142858  C 67.37500000000001 23.357142857142858  67.83238636363636 23.174665178571423  68.1903409090909 22.809709821428577  Z " fill-rule="nonzero" fill="#000000" stroke="none" transform="matrix(1 0 0 1 238 559 )" />
  </g>
</svg>