<?xml version="1.0" encoding="utf-8"?>
<svg version="1.1" xmlns:xlink="http://www.w3.org/1999/xlink" width="78px" height="134px" xmlns="http://www.w3.org/2000/svg">
  <g transform="matrix(1 0 0 1 -244 -813 )">
    <path d="M 73.734375 40.80909090909091  C 76.578125 43.65151515151514  78 47.103030303030295  78 51.163636363636364  L 78 82.83636363636363  C 78 84.86666666666666  77.2890625 86.59242424242424  75.8671875 88.01363636363635  C 74.4453125 89.43484848484847  72.71875 90.14545454545454  70.6875 90.14545454545454  C 68.65625000000001 90.14545454545454  66.9296875 89.43484848484847  65.5078125 88.01363636363635  C 64.0859375 86.59242424242424  63.375 84.86666666666666  63 82.83636363636363  L 63 56.03636363636364  L 58 56.03636363636364  L 58 125.47272727272728  C 58.5 127.80757575757576  57.662109375 129.8125  55.986328125 131.48749999999998  C 54.310546875 133.1625  52.30468750000001 134  49.96875 134  C 47.6328125 134  45.626953125 133.1625  43.951171875 131.48749999999998  C 42.275390625 129.8125  41.4375 127.80757575757576  41 125.47272727272728  L 41 90.14545454545454  L 37 90.14545454545454  L 37 125.47272727272728  C 36.56250000000001 127.80757575757576  35.72460937500001 129.8125  34.048828125 131.48749999999998  C 32.37304687500001 133.1625  30.367187500000007 134  28.03125 134  C 25.695312500000004 134  23.689453125 133.1625  22.013671875 131.48749999999998  C 20.337890625 129.8125  19.5 127.80757575757576  20 125.47272727272728  L 20 56.03636363636364  L 15 56.03636363636364  L 15 82.83636363636363  C 14.625 84.86666666666666  13.9140625 86.59242424242424  12.4921875 88.01363636363635  C 11.0703125 89.43484848484847  9.34375 90.14545454545454  7.3125 90.14545454545454  C 5.281250000000001 90.14545454545454  3.5546875000000004 89.43484848484847  2.1328125 88.01363636363635  C 0.7109374999999999 86.59242424242424  0 84.86666666666666  0 82.83636363636363  L 0 51.163636363636364  C 0 47.103030303030295  1.4218749999999998 43.65151515151514  4.265625 40.80909090909091  C 7.109375000000001 37.966666666666654  10.562500000000002 36.54545454545454  14.625 37  L 63.375 37  C 67.43750000000001 36.54545454545454  70.890625 37.966666666666654  73.734375 40.80909090909091  Z M 51.0732421875 4.98693181818182  C 54.39941406250001 8.311553030303013  56.0625 12.334090909090909  56.0625 17.054545454545462  C 56.0625 21.775  54.39941406250001 25.797537878787878  51.0732421875 29.122159090909086  C 47.7470703125 32.446780303030295  43.72265625 34.1090909090909  39 34.1090909090909  C 34.27734375 34.1090909090909  30.2529296875 32.446780303030295  26.9267578125 29.122159090909086  C 23.600585937500004 25.797537878787878  21.9375 21.775  21.9375 17.054545454545462  C 21.9375 12.334090909090909  23.600585937500004 8.311553030303013  26.9267578125 4.98693181818182  C 30.2529296875 1.6623106060605968  34.27734375 0  39 0  C 43.72265625 0  47.7470703125 1.6623106060605968  51.0732421875 4.98693181818182  Z " fill-rule="nonzero" fill="#000000" stroke="none" transform="matrix(1 0 0 1 244 813 )" />
  </g>
</svg>