<?xml version="1.0" encoding="utf-8"?>
<svg version="1.1" xmlns:xlink="http://www.w3.org/1999/xlink" width="40px" height="40px" xmlns="http://www.w3.org/2000/svg">
  <g transform="matrix(1 0 0 1 -1020 -250 )">
    <path d="M 14.93069306930693 34.30803571428571  L 30.574257425742573 19.017857142857146  C 31.37953795379538 24.315476190476186  33.34653465346535 28.45238095238095  36.475247524752476 31.428571428571427  C 36.475247524752476 32.202380952380956  36.224422442244226 32.87202380952381  35.722772277227726 33.4375  C 35.22112211221122 34.00297619047619  34.62706270627063 34.28571428571429  33.94059405940594 34.28571428571429  L 25.06930693069307 34.28571428571429  C 25.06930693069307 35.86309523809524  24.574257425742573 37.20982142857143  23.584158415841582 38.325892857142854  C 22.59405940594059 39.441964285714285  21.399339933993403 40  20 40  C 18.600660066006604 40  17.409240924092412 39.445684523809526  16.425742574257423 38.33705357142857  C 15.442244224422444 37.22842261904762  14.943894389438945 35.88541666666667  14.93069306930693 34.30803571428571  Z M 17.534653465346533 37.064732142857146  C 18.214521452145217 37.83110119047619  19.036303630363037 38.214285714285715  20 38.214285714285715  C 20.211221122112214 38.214285714285715  20.316831683168317 38.095238095238095  20.316831683168317 37.857142857142854  C 20.316831683168317 37.61904761904762  20.211221122112214 37.5  20 37.5  C 19.221122112211223 37.5  18.551155115511552 37.18377976190476  17.99009900990099 36.551339285714285  C 17.42904290429043 35.91889880952381  17.14851485148515 35.163690476190474  17.14851485148515 34.28571428571429  C 17.14851485148515 34.047619047619044  17.042904290429043 33.92857142857143  16.831683168316832 33.92857142857143  C 16.620462046204622 33.92857142857143  16.514851485148515 34.047619047619044  16.514851485148515 34.28571428571429  C 16.514851485148515 35.37202380952381  16.854785478547857 36.298363095238095  17.534653465346533 37.064732142857146  Z M 38.17821782178218 0.3571428571428559  L 39.84158415841584 2.5  C 39.94719471947195 2.648809523809521  39.996699669967 2.823660714285716  39.99009900990099 3.024553571428572  C 39.98349834983499 3.225446428571428  39.914191419141915 3.392857142857144  39.78217821782178 3.526785714285716  L 2.712871287128713 39.732142857142854  C 2.5808580858085812 39.85119047619048  2.4257425742574257 39.90327380952381  2.2475247524752477 39.888392857142854  C 2.0693069306930694 39.873511904761905  1.9273927392739276 39.79166666666667  1.8217821782178216 39.642857142857146  L 0.15841584158415842 37.5  C 0.052805280528052834 37.351190476190474  0.003300330033003324 37.176339285714285  0.009900990099009901 36.97544642857143  C 0.01650165016501655 36.77455357142857  0.08580858085808586 36.61458333333333  0.2178217821782178 36.495535714285715  L 3.900990099009901 32.90178571428571  C 3.6501650165016497 32.42559523809524  3.5247524752475243 31.934523809523814  3.5247524752475243 31.428571428571427  C 4.184818481848184 30.803571428571427  4.785478547854786 30.148809523809526  5.326732673267327 29.46428571428571  C 5.867986798679868 28.7797619047619  6.42904290429043 27.890625  7.009900990099009 26.796875  C 7.590759075907592 25.703125  8.082508250825084 24.523809523809522  8.485148514851485 23.258928571428573  C 8.887788778877889 21.99404761904762  9.217821782178218 20.461309523809526  9.475247524752476 18.660714285714285  C 9.732673267326732 16.860119047619047  9.861386138613861 14.925595238095234  9.861386138613861 12.857142857142856  C 9.861386138613861 10.595238095238093  10.633663366336634 8.493303571428573  12.178217821782178 6.551339285714284  C 13.722772277227724 4.609375  15.74917491749175 3.430059523809521  18.25742574257426 3.013392857142856  C 18.151815181518153 2.7306547619047583  18.0990099009901 2.4404761904761907  18.0990099009901 2.142857142857144  C 18.0990099009901 1.5476190476190466  18.283828382838287 1.0416666666666652  18.653465346534656 0.625  C 19.023102310231025 0.2083333333333348  19.471947194719476 0  20 0  C 20.52805280528053 0  20.976897689768983 0.2083333333333348  21.346534653465348 0.625  C 21.71617161716172 1.0416666666666652  21.900990099009903 1.5476190476190466  21.900990099009903 2.142857142857144  C 21.900990099009903 2.4404761904761907  21.848184818481855 2.7306547619047583  21.742574257425744 3.013392857142856  C 23.379537953795378 3.28125  24.825082508250826 3.895089285714284  26.07920792079208 4.854910714285716  C 27.33333333333334 5.814732142857144  28.31023102310231 6.986607142857144  29.00990099009901 8.370535714285715  L 37.28712871287129 0.2678571428571441  C 37.41914191419142 0.14880952380952106  37.57425742574257 0.09672619047619069  37.75247524752475 0.11160714285714413  C 37.930693069306926 0.12648809523809312  38.07260726072607 0.20833333333333037  38.17821782178218 0.3571428571428559  Z " fill-rule="nonzero" fill="#000000" stroke="none" transform="matrix(1 0 0 1 1020 250 )" />
  </g>
</svg>