<?xml version="1.0" encoding="utf-8"?>
<svg version="1.1" xmlns:xlink="http://www.w3.org/1999/xlink" width="40px" height="40px" xmlns="http://www.w3.org/2000/svg">
  <g transform="matrix(1 0 0 1 -970 -250 )">
    <path d="M 37.142857142857146 3.328998699609884  L 37.142857142857146 13.315994798439533  C 37.93154761904762 13.315994798439533  38.604910714285715 13.64109232769831  39.16294642857143 14.291287386215865  C 39.720982142857146 14.94148244473342  40 15.726051148677938  40 16.644993498049416  C 40 17.56393584742089  39.720982142857146 18.34850455136541  39.16294642857143 18.998699609882962  C 38.604910714285715 19.64889466840052  37.93154761904762 19.973992197659296  37.142857142857146 19.973992197659296  L 37.142857142857146 29.960988296488942  C 37.142857142857146 30.86259211096662  36.86011904761905 31.642826181187687  36.294642857142854 32.301690507152145  C 35.72916666666667 32.9605548331166  35.05952380952381 33.289986996098826  34.285714285714285 33.289986996098826  C 28.080357142857146 27.273515387949715  22.038690476190478 23.979193758127437  16.160714285714285 23.40702210663199  C 15.29761904761905 23.736454269614214  14.620535714285714 24.308625921109662  14.129464285714286 25.123537061118334  C 13.638392857142858 25.938448201127002  13.407738095238098 26.809709579540524  13.4375 27.73732119635891  C 13.467261904761905 28.664932813177284  13.764880952380953 29.466840052015606  14.330357142857142 30.143042912873863  C 14.032738095238098 30.71521456436931  13.861607142857142 31.283051582141308  13.816964285714286 31.84655396618986  C 13.772321428571427 32.410056350238406  13.816964285714286 32.91287386215865  13.950892857142858 33.355006501950584  C 14.084821428571427 33.79713914174253  14.334077380952383 34.27394885132206  14.698660714285714 34.78543563068921  C 15.06324404761905 35.296922410056354  15.420386904761905 35.730385782401385  15.770089285714286 36.085825747724314  C 16.119791666666668 36.44126571304725  16.577380952380953 36.879063719115734  17.142857142857142 37.39921976592978  C 16.711309523809526 38.40485478977027  15.881696428571427 39.124403987863026  14.654017857142858 39.557867360208064  C 13.426339285714286 39.9913307325531  12.17261904761905 40.09102730819245  10.892857142857142 39.85695708712613  C 9.613095238095239 39.622886866059815  8.630952380952383 39.14174252275683  7.946428571428571 38.41352405721716  C 7.842261904761906 38.014737754659734  7.622767857142857 37.25617685305592  7.287946428571429 36.13784135240572  C 6.953125 35.019505851755525  6.715029761904763 34.200260078023405  6.5736607142857135 33.68010403120936  C 6.432291666666668 33.159947984395316  6.2611607142857135 32.38838318162115  6.060267857142857 31.365409622886865  C 5.859375 30.342436064152576  5.747767857142857 29.466840052015606  5.725446428571429 28.738621586475944  C 5.703125000000001 28.010403120936278  5.729166666666668 27.156480277416556  5.803571428571429 26.176853055916776  C 5.877976190476192 25.19722583441699  6.041666666666668 24.239271781534455  6.294642857142857 23.30299089726918  L 3.5714285714285716 23.30299089726918  C 2.5892857142857144 23.30299089726918  1.7485119047619049 22.895535327264845  1.0491071428571428 22.080624187256177  C 0.34970238095238093 21.265713047247505  0 20.286085825747726  0 19.141742522756825  L 0 14.148244473342002  C 0 13.003901170351106  0.34970238095238093 12.024273948851318  1.0491071428571428 11.209362808842652  C 1.7485119047619049 10.39445166883398  2.5892857142857144 9.986996098829648  3.5714285714285716 10  L 14.285714285714286 10  C 20.758928571428573 9.986996098829648  27.42559523809524 6.657997399219764  34.285714285714285 0  C 35.05952380952381 0  35.72916666666667 0.3294321629822239  36.294642857142854 0.988296488946685  C 36.86011904761905 1.6471608149111372  37.142857142857146 2.4273948851322036  37.142857142857146 3.328998699609884  Z M 17.142857142857142 20.156046814044217  C 22.75297619047619 20.88426527958387  28.467261904761905 23.840485478977023  34 29.024707412223666  L 34 4.213263979193758  C 28.42261904761905 9.449501517121801  22.708333333333336 12.423060251408753  17.142857142857142 13.133940182054618  L 17.142857142857142 20.156046814044217  Z " fill-rule="nonzero" fill="#000000" stroke="none" transform="matrix(1 0 0 1 970 250 )" />
  </g>
</svg>