<?xml version="1.0" encoding="utf-8"?>
<svg version="1.1" xmlns:xlink="http://www.w3.org/1999/xlink" width="40px" height="40px" xmlns="http://www.w3.org/2000/svg">
  <g transform="matrix(1 0 0 1 -180 -250 )">
    <path d="M 38.816964285714285 18.075000000000003  C 39.605654761904766 20.30833333333333  40 23.083333333333332  40 26.4  C 40 29.16666666666666  39.055059523809526 32.925  37.16517857142857 37.675  C 37.12053571428572 37.79166666666667  37.04241071428572 37.99166666666667  36.93080357142857 38.275  C 36.81919642857143 38.55833333333333  36.71875000000001 38.80833333333334  36.629464285714285 39.025  C 36.54017857142858 39.24166666666667  36.44345238095239 39.425  36.339285714285715 39.575  C 36.160714285714285 39.858333333333334  35.952380952380956 40  35.714285714285715 40  C 35.49107142857143 40  35.31622023809524 39.916666666666664  35.189732142857146 39.75  C 35.06324404761905 39.58333333333333  35 39.375  35 39.125  C 35 38.975  35.0186011904762 38.75416666666667  35.05580357142857 38.4625  C 35.093005952380956 38.170833333333334  35.111607142857146 37.975  35.111607142857146 37.875  C 35.186011904761905 36.74166666666667  35.22321428571429 35.71666666666667  35.223214285714285 34.8  C 35.22321428571429 33.11666666666667  35.093005952380956 31.60833333333333  34.832589285714285 30.275  C 34.57217261904762 28.941666666666663  34.211309523809526 27.7875  33.75 26.8125  C 33.28869047619048 25.837500000000002  32.69345238095238 24.99583333333333  31.964285714285715 24.2875  C 31.23511904761905 23.579166666666666  30.45014880952381 23  29.609375 22.549999999999997  C 28.768601190476197 22.1  27.779017857142854 21.74583333333333  26.640625 21.487499999999997  C 25.502232142857146 21.229166666666668  24.35639880952381 21.05  23.203125 20.949999999999996  C 22.04985119047619 20.85  20.74404761904762 20.8  19.285714285714285 20.8  L 14.285714285714286 20.8  L 14.285714285714286 27.199999999999996  C 14.285714285714286 27.633333333333333  14.144345238095239 28.008333333333333  13.861607142857142 28.325  C 13.57886904761905 28.641666666666662  13.24404761904762 28.799999999999997  12.857142857142858 28.799999999999997  C 12.470238095238098 28.799999999999997  12.135416666666668 28.641666666666662  11.852678571428573 28.325  L 0.4241071428571429 15.525000000000002  C 0.14136904761904762 15.20833333333333  0 14.833333333333329  0 14.399999999999999  C 0 13.966666666666665  0.14136904761904762 13.591666666666665  0.4241071428571429 13.275000000000002  L 11.852678571428573 0.47499999999999876  C 12.135416666666668 0.15833333333333144  12.470238095238098 0  12.857142857142858 0  C 13.24404761904762 0  13.57886904761905 0.15833333333333144  13.861607142857142 0.47499999999999876  C 14.144345238095239 0.7916666666666616  14.285714285714286 1.1666666666666625  14.285714285714286 1.6000000000000014  L 14.285714285714286 7.999999999999998  L 19.285714285714285 7.999999999999998  C 29.895833333333336 7.999999999999998  36.40625 11.358333333333333  38.816964285714285 18.075000000000003  Z " fill-rule="nonzero" fill="#000000" stroke="none" transform="matrix(1 0 0 1 180 250 )" />
  </g>
</svg>