<?xml version="1.0" encoding="utf-8"?>
<svg version="1.1" xmlns:xlink="http://www.w3.org/1999/xlink" width="60px" height="60px" xmlns="http://www.w3.org/2000/svg">
  <g transform="matrix(1 0 0 1 -1060 -910 )">
    <path d="M 57.858337981037366 0  C 58.30451756832125 0  58.70607919687674 0.12276785714286254  59.06302286670385 0.3683035714285743  C 59.79921918572226 0.9040178571428581  60.10039040713889 1.6183035714285698  59.96653653095371 2.511160714285716  L 51.39988845510318 53.93973214285714  C 51.28834355828221 54.58705357142857  50.931399888455104 55.08928571428571  50.329057445621864 55.44642857142858  C 50.01673173452315 55.62499999999999  49.670942554378136 55.714285714285715  49.29168990518684 55.714285714285715  C 49.046291132180706 55.714285714285715  48.77858337981038 55.65848214285714  48.48856664807585 55.546875  L 33.32961517010597 49.35267857142857  L 25.231455660903514 59.229910714285715  C 24.82989403234802 59.74330357142857  24.28332403792527 60  23.59174567763525 60  C 23.301728945900727 60  23.05633017289459 59.955357142857146  22.855549358616845 59.86607142857142  C 22.43167875069716 59.70982142857143  22.0914668153932 59.44754464285714  21.834913552704965 59.07924107142858  C 21.578360290016732 58.7109375  21.450083658672614 58.30357142857143  22 57.85714285714286  L 22 46.171875  L 50.36252091466815 10.714285714285715  L 14.590072504182935 41.68526785714286  L 1.3720022308979365 36.261160714285715  C 0.5465699944227551 35.94866071428571  0.1003904071388734 35.33482142857143  0.03346346904629113 34.41964285714286  C -0.011154489682097049 33.52678571428571  0.3457891801450083 32.86830357142857  1.1042944785276074 32.44419642857143  L 56.78750697155605 0.3013392857142838  C 57.12214166201897 0.10044642857142572  57.47908533184607 0  57.858337981037366 0  Z " fill-rule="nonzero" fill="#000000" stroke="none" transform="matrix(1 0 0 1 1060 910 )" />
  </g>
</svg>