<?xml version="1.0" encoding="utf-8"?>
<svg version="1.1" xmlns:xlink="http://www.w3.org/1999/xlink" width="420px" height="100px" xmlns="http://www.w3.org/2000/svg">
  <g transform="matrix(1 0 0 1 -240 -600 )">
    <path d="M 267.30424005906553 655.1764040120206  C 267.30424005906553 655.1764040120206  267.30424005906553 625  267.30424005906553 625  C 267.30424005906553 612.0213083789763  277.8255484380419 601.5  290.80424005906553 601.5  C 290.80424005906553 601.5  634.999999999998 601.5  634.999999999998 601.5  C 647.9786916210215 601.5  658.499999999998 612.0213083789763  658.499999999998 625  C 658.499999999998 625  658.499999999998 655.1764040120206  658.499999999998 655.1764040120206  C 658.499999999998 668.1550956330442  647.9786916210215 678.6764040120206  634.999999999998 678.6764040120206  C 634.999999999998 678.6764040120206  294.22353784570987 678.6764040120206  294.22353784570987 678.6764040120206  C 294.22353784570987 678.6764040120206  248.6241392071903 695.2662096528136  248.6241392071903 695.2662096528136  C 248.6241392071903 695.2662096528136  276.5193249268364 673.8362861034223  276.5193249268364 673.8362861034223  C 270.7107825739953 669.3896055646138  267.30424005906553 662.491602716018  267.30424005906553 655.1764040120206  Z " fill-rule="nonzero" fill="#ffffff" stroke="none" fill-opacity="0" />
    <path d="M 265.80424005906553 655.1764040120206  C 265.80424005906553 655.1764040120206  265.80424005906553 625  265.80424005906553 625  C 265.80424005906553 611.1928812542302  276.9971213132957 600  290.80424005906553 600  C 290.80424005906553 600  634.999999999998 600  634.999999999998 600  C 648.8071187457678 600  659.999999999998 611.1928812542302  659.999999999998 625  C 659.999999999998 625  659.999999999998 655.1764040120206  659.999999999998 655.1764040120206  C 659.999999999998 668.9835227577904  648.8071187457678 680.1764040120206  634.999999999998 680.1764040120206  C 634.999999999998 680.1764040120206  294.48792321485075 680.1764040120206  294.48792321485075 680.1764040120206  C 294.48792321485075 680.1764040120206  240 700  240 700  C 240 700  274.11604426037235 673.7910251734753  274.11604426037235 673.7910251734753  C 268.8265227557184 669.0489157431825  265.80424005906553 662.2803915962629  265.80424005906553 655.1764040120206  Z M 267.80424005906553 655.1764040120206  C 267.80424005906553 662.5664321880362  271.35519728804485 669.5063465008553  277.3486101791273 673.8297153677588  C 277.3486101791273 673.8297153677588  251.49885227625379 693.6882795370848  251.49885227625379 693.6882795370848  C 251.49885227625379 693.6882795370848  294.1354093893296 678.1764040120206  294.1354093893296 678.1764040120206  C 294.1354093893296 678.1764040120206  634.999999999998 678.1764040120206  634.999999999998 678.1764040120206  C 647.7025492461062 678.1764040120206  657.999999999998 667.8789532581288  657.999999999998 655.1764040120206  C 657.999999999998 655.1764040120206  657.999999999998 625  657.999999999998 625  C 657.999999999998 612.2974507538918  647.7025492461062 602  634.999999999998 602  C 634.999999999998 602  290.80424005906553 602  290.80424005906553 602  C 278.10169081295726 602  267.80424005906553 612.2974507538918  267.80424005906553 625  C 267.80424005906553 625  267.80424005906553 655.1764040120206  267.80424005906553 655.1764040120206  Z " fill-rule="nonzero" fill="#000000" stroke="none" />
  </g>
</svg>