<?xml version="1.0" encoding="utf-8"?>
<svg version="1.1" xmlns:xlink="http://www.w3.org/1999/xlink" width="45px" height="40px" xmlns="http://www.w3.org/2000/svg">
  <g transform="matrix(1 0 0 1 -1070 -250 )">
    <path d="M 18.309948979591837 36.578125  C 18.290816326530614 36.692708333333336  18.309948979591837 36.833333333333336  18.367346938775512 37  C 18.367346938775512 37.083333333333336  18.376913265306122 37.291666666666664  18.396045918367346 37.625  C 18.415178571428573 37.958333333333336  18.419961734693878 38.234375  18.410395408163264 38.453125  C 18.400829081632654 38.671875  18.372130102040817 38.916666666666664  18.324298469387756 39.1875  C 18.276466836734695 39.458333333333336  18.180803571428573 39.661458333333336  18.03730867346939 39.796875  C 17.893813775510203 39.932291666666664  17.697704081632654 40  17.448979591836736 40  L 8.26530612244898 40  C 5.988520408163266 40  4.041772959183674 39.119791666666664  2.4250637755102042 37.359375  C 0.8083545918367346 35.598958333333336  0 33.479166666666664  0 31  L 0 9  C 0 6.520833333333327  0.8083545918367346 4.401041666666665  2.4250637755102042 2.640625000000001  C 4.041772959183674 0.8802083333333277  5.988520408163266 0  8.26530612244898 0  L 17.448979591836736 0  C 17.697704081632654 0  17.91294642857143 0.09895833333332771  18.09470663265306 0.2968750000000009  C 18.276466836734695 0.4947916666666652  18.367346938775512 0.7291666666666652  18.367346938775512 1.0000000000000009  C 18.367346938775512 1.0833333333333295  18.376913265306122 1.2916666666666643  18.396045918367346 1.6250000000000009  C 18.415178571428573 1.9583333333333286  18.419961734693878 2.2343750000000018  18.410395408163264 2.4531249999999982  C 18.400829081632654 2.671874999999999  18.372130102040817 2.916666666666665  18.324298469387756 3.187500000000001  C 18.276466836734695 3.4583333333333277  18.180803571428573 3.6614583333333295  18.03730867346939 3.7968750000000018  C 17.893813775510203 3.932291666666665  17.697704081632654 3.999999999999999  17.448979591836736 3.999999999999999  L 8.26530612244898 3.999999999999999  C 7.002551020408164 3.999999999999999  5.9215561224489806 4.489583333333327  5.022321428571429 5.46875  C 4.123086734693878 6.447916666666664  3.6734693877551017 7.625000000000002  4 9  L 4 31  C 3.6734693877551017 32.375  4.123086734693878 33.55208333333333  5.022321428571429 34.53125  C 5.9215561224489806 35.510416666666664  7.002551020408164 36  8.26530612244898 36  L 16.53061224489796 36  L 16.846301020408163 36  L 17.21938775510204 36  C 17.21938775510204 36  17.329400510204085 36.010416666666664  17.549426020408163 36.03125  C 17.769451530612248 36.052083333333336  17.879464285714285 36.083333333333336  17.879464285714285 36.125  C 17.879464285714285 36.166666666666664  17.955994897959187 36.223958333333336  18.10905612244898 36.296875  C 18.262117346938776 36.369791666666664  18.329081632653065 36.463541666666664  18.309948979591837 36.578125  Z M 44.4547193877551 18.59375  C 44.818239795918366 18.989583333333332  45 19.458333333333332  45 20  C 45 20.541666666666664  44.818239795918366 21.010416666666664  44.4547193877551 21.40625  L 28.84247448979592 38.40625  C 28.47895408163265 38.802083333333336  28.048469387755105 39  27.551020408163264 39  C 27.05357142857143 39  26.623086734693878 38.802083333333336  26.25956632653061 38.40625  C 25.89604591836735 38.010416666666664  25.71428571428571 37.541666666666664  25.71428571428571 37  L 25.71428571428571 28  L 12.857142857142856 28  C 12.35969387755102 28  11.92920918367347 27.802083333333336  11.565688775510205 27.40625  C 11.202168367346939 27.010416666666664  11.020408163265305 26.541666666666664  11 26  L 11 14  C 11.020408163265305 13.458333333333329  11.202168367346939 12.989583333333329  11.565688775510205 12.59375  C 11.92920918367347 12.197916666666666  12.35969387755102 12.000000000000002  12.857142857142856 12  L 25.71428571428571 12  L 25.71428571428571 2.9999999999999982  C 25.71428571428571 2.458333333333327  25.89604591836735 1.9895833333333268  26.25956632653061 1.5937499999999982  C 26.623086734693878 1.1979166666666652  27.05357142857143 1.0000000000000009  27.551020408163264 1.0000000000000009  C 28.048469387755105 1.0000000000000009  28.47895408163265 1.1979166666666652  28.84247448979592 1.5937499999999982  L 44.4547193877551 18.59375  Z " fill-rule="nonzero" fill="#000000" stroke="none" transform="matrix(1 0 0 1 1070 250 )" />
  </g>
</svg>