<?xml version="1.0" encoding="utf-8"?>
<svg version="1.1" xmlns:xlink="http://www.w3.org/1999/xlink" width="18px" height="18px" viewBox="570 462  18 18" xmlns="http://www.w3.org/2000/svg">
  <path d="M 571.5 464  A 0.5 0.5 0 0 1 572 463.5 L 586 463.5  A 0.5 0.5 0 0 1 586.5 464 L 586.5 478  A 0.5 0.5 0 0 1 586 478.5 L 572 478.5  A 0.5 0.5 0 0 1 571.5 478 L 571.5 464  Z " fill-rule="nonzero" fill="#ffffff" stroke="none" fill-opacity="0" />
  <path d="M 571 464  A 1 1 0 0 1 572 463 L 586 463  A 1 1 0 0 1 587 464 L 587 478  A 1 1 0 0 1 586 479 L 572 479  A 1 1 0 0 1 571 478 L 571 464  Z " stroke-width="2" stroke="#797979" fill="none" />
</svg>