<?xml version="1.0" encoding="utf-8"?>
<svg version="1.1" xmlns:xlink="http://www.w3.org/1999/xlink" width="18px" height="18px" viewBox="570 502  18 18" xmlns="http://www.w3.org/2000/svg">
  <path d="M 571.5 504  A 0.5 0.5 0 0 1 572 503.5 L 586 503.5  A 0.5 0.5 0 0 1 586.5 504 L 586.5 518  A 0.5 0.5 0 0 1 586 518.5 L 572 518.5  A 0.5 0.5 0 0 1 571.5 518 L 571.5 504  Z " fill-rule="nonzero" fill="#ffffff" stroke="none" fill-opacity="0" />
  <path d="M 571 504  A 1 1 0 0 1 572 503 L 586 503  A 1 1 0 0 1 587 504 L 587 518  A 1 1 0 0 1 586 519 L 572 519  A 1 1 0 0 1 571 518 L 571 504  Z " stroke-width="2" stroke="#797979" fill="none" />
</svg>