<?xml version="1.0" encoding="utf-8"?>
<svg version="1.1" xmlns:xlink="http://www.w3.org/1999/xlink" width="18px" height="18px" viewBox="570 622  18 18" xmlns="http://www.w3.org/2000/svg">
  <path d="M 571.5 624  A 0.5 0.5 0 0 1 572 623.5 L 586 623.5  A 0.5 0.5 0 0 1 586.5 624 L 586.5 638  A 0.5 0.5 0 0 1 586 638.5 L 572 638.5  A 0.5 0.5 0 0 1 571.5 638 L 571.5 624  Z " fill-rule="nonzero" fill="#ffffff" stroke="none" fill-opacity="0" />
  <path d="M 571 624  A 1 1 0 0 1 572 623 L 586 623  A 1 1 0 0 1 587 624 L 587 638  A 1 1 0 0 1 586 639 L 572 639  A 1 1 0 0 1 571 638 L 571 624  Z " stroke-width="2" stroke="#797979" fill="none" />
</svg>