<?xml version="1.0" encoding="utf-8"?>
<svg version="1.1" xmlns:xlink="http://www.w3.org/1999/xlink" width="34px" height="40px" xmlns="http://www.w3.org/2000/svg">
  <g transform="matrix(1 0 0 1 -1023 -250 )">
    <path d="M 17 38.214285714285715  C 17.217948717948723 38.214285714285715  17.32692307692308 38.095238095238095  17.326923076923077 37.857142857142854  C 17.32692307692308 37.61904761904762  17.217948717948723 37.5  17 37.5  C 16.196314102564102 37.5  15.505008012820516 37.18377976190476  14.926081730769232 36.551339285714285  C 14.34715544871795 35.91889880952381  14.057692307692307 35.163690476190474  14.057692307692307 34.28571428571429  C 14.057692307692307 34.047619047619044  13.94871794871795 33.92857142857143  13.730769230769232 33.92857142857143  C 13.512820512820515 33.92857142857143  13.403846153846153 34.047619047619044  13.403846153846153 34.28571428571429  C 13.403846153846153 35.37202380952381  13.754607371794872 36.298363095238095  14.456129807692307 37.064732142857146  C 15.157652243589745 37.83110119047619  16.005608974358974 38.214285714285715  17 38.214285714285715  Z M 32.140625 29.46428571428571  C 32.69911858974359 30.148809523809526  33.318910256410255 30.803571428571427  34 31.428571428571427  C 34.00000000000001 32.202380952380956  33.7411858974359 32.87202380952381  33.22355769230769 33.4375  C 32.70592948717949 34.00297619047619  32.09294871794872 34.28571428571429  31.384615384615387 34.28571428571429  L 22.23076923076923 34.28571428571429  C 22.23076923076923 35.86309523809524  21.719951923076923 37.20982142857143  20.698317307692307 38.325892857142854  C 19.676682692307693 39.441964285714285  18.44391025641026 40  17 40  C 15.556089743589745 40  14.323317307692307 39.441964285714285  13.301682692307693 38.325892857142854  C 12.280048076923078 37.20982142857143  11.769230769230768 35.86309523809524  11.769230769230768 34.28571428571429  L 2.6153846153846154 34.28571428571429  C 1.9070512820512824 34.28571428571429  1.294070512820513 34.00297619047619  0.7764423076923076 33.4375  C 0.25881410256410264 32.87202380952381  0 32.202380952380956  0 31.428571428571427  C 0.6810897435897437 30.803571428571427  1.3008814102564106 30.148809523809526  1.859375 29.46428571428571  C 2.4178685897435903 28.7797619047619  2.996794871794872 27.890625  3.5961538461538463 26.796875  C 4.195512820512821 25.703125  4.702924679487181 24.523809523809522  5.118389423076923 23.258928571428573  C 5.533854166666667 21.99404761904762  5.874399038461539 20.461309523809526  6.140024038461539 18.660714285714285  C 6.405649038461539 16.860119047619047  6.538461538461539 14.925595238095234  6.538461538461539 12.857142857142856  C 6.538461538461539 10.595238095238093  7.335336538461539 8.493303571428573  8.929086538461538 6.551339285714284  C 10.522836538461538 4.609375  12.613782051282051 3.430059523809521  15.201923076923078 3.013392857142856  C 15.092948717948719 2.7306547619047583  15.038461538461538 2.4404761904761907  15.038461538461538 2.142857142857144  C 15.038461538461538 1.5476190476190466  15.229166666666668 1.0416666666666652  15.610576923076922 0.625  C 15.99198717948718 0.2083333333333348  16.455128205128204 0  17 0  C 17.544871794871796 0  18.008012820512825 0.2083333333333348  18.389423076923077 0.625  C 18.770833333333336 1.0416666666666652  18.961538461538463 1.5476190476190466  18.961538461538463 2.142857142857144  C 18.961538461538463 2.4404761904761907  18.907051282051285 2.7306547619047583  18.798076923076923 3.013392857142856  C 21.386217948717952 3.430059523809521  23.477163461538463 4.609375  25.070913461538463 6.551339285714284  C 26.664663461538463 8.493303571428573  27.461538461538463 10.595238095238093  27.461538461538463 12.857142857142856  C 27.461538461538463 14.925595238095234  27.594350961538463 16.860119047619047  27.859975961538463 18.660714285714285  C 28.125600961538463 20.461309523809526  28.466145833333336 21.99404761904762  28.881610576923077 23.258928571428573  C 29.297075320512825 24.523809523809522  29.80448717948718 25.703125  30.403846153846157 26.796875  C 31.00320512820513 27.890625  31.58213141025642 28.7797619047619  32.140625 29.46428571428571  Z " fill-rule="nonzero" fill="#000000" stroke="none" transform="matrix(1 0 0 1 1023 250 )" />
  </g>
</svg>