<?xml version="1.0" encoding="utf-8"?>
<svg version="1.1" xmlns:xlink="http://www.w3.org/1999/xlink" width="18px" height="18px" viewBox="570 582  18 18" xmlns="http://www.w3.org/2000/svg">
  <path d="M 571.5 584  A 0.5 0.5 0 0 1 572 583.5 L 586 583.5  A 0.5 0.5 0 0 1 586.5 584 L 586.5 598  A 0.5 0.5 0 0 1 586 598.5 L 572 598.5  A 0.5 0.5 0 0 1 571.5 598 L 571.5 584  Z " fill-rule="nonzero" fill="#ffffff" stroke="none" fill-opacity="0" />
  <path d="M 571 584  A 1 1 0 0 1 572 583 L 586 583  A 1 1 0 0 1 587 584 L 587 598  A 1 1 0 0 1 586 599 L 572 599  A 1 1 0 0 1 571 598 L 571 584  Z " stroke-width="2" stroke="#797979" fill="none" />
</svg>