<?xml version="1.0" encoding="utf-8"?>
<svg version="1.1" xmlns:xlink="http://www.w3.org/1999/xlink" width="18px" height="18px" viewBox="570 542  18 18" xmlns="http://www.w3.org/2000/svg">
  <path d="M 571.5 544  A 0.5 0.5 0 0 1 572 543.5 L 586 543.5  A 0.5 0.5 0 0 1 586.5 544 L 586.5 558  A 0.5 0.5 0 0 1 586 558.5 L 572 558.5  A 0.5 0.5 0 0 1 571.5 558 L 571.5 544  Z " fill-rule="nonzero" fill="#ffffff" stroke="none" fill-opacity="0" />
  <path d="M 571 544  A 1 1 0 0 1 572 543 L 586 543  A 1 1 0 0 1 587 544 L 587 558  A 1 1 0 0 1 586 559 L 572 559  A 1 1 0 0 1 571 558 L 571 544  Z " stroke-width="2" stroke="#797979" fill="none" />
</svg>