<?xml version="1.0" encoding="utf-8"?>
<svg version="1.1" xmlns:xlink="http://www.w3.org/1999/xlink" width="107px" height="32px" xmlns="http://www.w3.org/2000/svg">
  <g transform="matrix(1 0 0 1 -473 -146 )">
    <path d="M 473.5 162  A 15.5 15.5 0 0 1 489 146.5 L 564 146.5  A 15.5 15.5 0 0 1 579.5 162 A 15.5 15.5 0 0 1 564 177.5 L 489 177.5  A 15.5 15.5 0 0 1 473.5 162 Z " fill-rule="nonzero" fill="#dedede" stroke="none" />
    <path d="M 473.5 162  A 15.5 15.5 0 0 1 489 146.5 L 564 146.5  A 15.5 15.5 0 0 1 579.5 162 A 15.5 15.5 0 0 1 564 177.5 L 489 177.5  A 15.5 15.5 0 0 1 473.5 162 Z " stroke-width="1" stroke="#c2c2c2" fill="none" />
  </g>
</svg>