<?xml version="1.0" encoding="utf-8"?>
<svg version="1.1" xmlns:xlink="http://www.w3.org/1999/xlink" width="111px" height="36px" xmlns="http://www.w3.org/2000/svg">
  <defs>
    <filter x="472px" y="145px" width="111px" height="36px" filterUnits="userSpaceOnUse" id="filter1">
      <feOffset dx="1" dy="1" in="SourceAlpha" result="shadowOffsetInner" />
      <feGaussianBlur stdDeviation="1" in="shadowOffsetInner" result="shadowGaussian" />
      <feComposite in2="shadowGaussian" operator="atop" in="SourceAlpha" result="shadowComposite" />
      <feColorMatrix type="matrix" values="0 0 0 0 0  0 0 0 0 0  0 0 0 0 0  0 0 0 0.25098039215686274 0  " in="shadowComposite" />
    </filter>
    <g id="widget2">
      <path d="M 473.5 162  A 15.5 15.5 0 0 1 489 146.5 L 564 146.5  A 15.5 15.5 0 0 1 579.5 162 A 15.5 15.5 0 0 1 564 177.5 L 489 177.5  A 15.5 15.5 0 0 1 473.5 162 Z " fill-rule="nonzero" fill="#9e9e9e" stroke="none" />
      <path d="M 473.5 162  A 15.5 15.5 0 0 1 489 146.5 L 564 146.5  A 15.5 15.5 0 0 1 579.5 162 A 15.5 15.5 0 0 1 564 177.5 L 489 177.5  A 15.5 15.5 0 0 1 473.5 162 Z " stroke-width="1" stroke="#c2c2c2" fill="none" />
    </g>
  </defs>
  <g transform="matrix(1 0 0 1 -472 -145 )">
    <use xlink:href="#widget2" filter="url(#filter1)" />
    <use xlink:href="#widget2" />
  </g>
</svg>