<?xml version="1.0" encoding="utf-8"?>
<svg version="1.1" xmlns:xlink="http://www.w3.org/1999/xlink" width="107px" height="32px" xmlns="http://www.w3.org/2000/svg">
  <g transform="matrix(1 0 0 1 -157 -146 )">
    <path d="M 157.5 162  A 15.5 15.5 0 0 1 173 146.5 L 248 146.5  A 15.5 15.5 0 0 1 263.5 162 A 15.5 15.5 0 0 1 248 177.5 L 173 177.5  A 15.5 15.5 0 0 1 157.5 162 Z " fill-rule="nonzero" fill="#1e98d7" stroke="none" fill-opacity="0.25098039215686274" />
    <path d="M 157.5 162  A 15.5 15.5 0 0 1 173 146.5 L 248 146.5  A 15.5 15.5 0 0 1 263.5 162 A 15.5 15.5 0 0 1 248 177.5 L 173 177.5  A 15.5 15.5 0 0 1 157.5 162 Z " stroke-width="1" stroke="#1e98d7" fill="none" />
  </g>
</svg>