<?xml version="1.0" encoding="utf-8"?>
<svg version="1.1" xmlns:xlink="http://www.w3.org/1999/xlink" width="107px" height="32px" xmlns="http://www.w3.org/2000/svg">
  <g transform="matrix(1 0 0 1 -796 -146 )">
    <path d="M 796.5 162  A 15.5 15.5 0 0 1 812 146.5 L 887 146.5  A 15.5 15.5 0 0 1 902.5 162 A 15.5 15.5 0 0 1 887 177.5 L 812 177.5  A 15.5 15.5 0 0 1 796.5 162 Z " fill-rule="nonzero" fill="#ffffff" stroke="none" />
    <path d="M 796.5 162  A 15.5 15.5 0 0 1 812 146.5 L 887 146.5  A 15.5 15.5 0 0 1 902.5 162 A 15.5 15.5 0 0 1 887 177.5 L 812 177.5  A 15.5 15.5 0 0 1 796.5 162 Z " stroke-width="1" stroke="#c2c2c2" fill="none" />
  </g>
</svg>