<?xml version="1.0" encoding="utf-8"?>
<svg version="1.1" xmlns:xlink="http://www.w3.org/1999/xlink" width="107px" height="32px" xmlns="http://www.w3.org/2000/svg">
  <g transform="matrix(1 0 0 1 -951 -146 )">
    <path d="M 951.5 162  A 15.5 15.5 0 0 1 967 146.5 L 1042 146.5  A 15.5 15.5 0 0 1 1057.5 162 A 15.5 15.5 0 0 1 1042 177.5 L 967 177.5  A 15.5 15.5 0 0 1 951.5 162 Z " fill-rule="nonzero" fill="#ffffff" stroke="none" />
    <path d="M 951.5 162  A 15.5 15.5 0 0 1 967 146.5 L 1042 146.5  A 15.5 15.5 0 0 1 1057.5 162 A 15.5 15.5 0 0 1 1042 177.5 L 967 177.5  A 15.5 15.5 0 0 1 951.5 162 Z " stroke-width="1" stroke="#c2c2c2" fill="none" />
  </g>
</svg>