<?xml version="1.0" encoding="utf-8"?>
<svg version="1.1" xmlns:xlink="http://www.w3.org/1999/xlink" width="50px" height="40px" xmlns="http://www.w3.org/2000/svg">
  <g transform="matrix(1 0 0 1 -1076 -242 )">
    <path d="M 47.20982142857143 15.369318181818183  C 48.27008928571429 14.630681818181817  49.20014880952381 13.806818181818183  50 12.89772727272727  L 50 35.45454545454545  C 50 36.70454545454545  49.562872023809526 37.77462121212122  48.68861607142857 38.66477272727273  C 47.81436011904763 39.554924242424235  46.76339285714287 40  45.535714285714285 40  L 4.464285714285714 40  C 3.2366071428571432 40  2.1856398809523814 39.554924242424235  1.3113839285714288 38.66477272727273  C 0.4371279761904764 37.77462121212122  0 36.70454545454545  0 35.45454545454545  L 0 12.89772727272727  C 0.8184523809523812 13.825757575757574  1.7578125000000004 14.649621212121207  2.818080357142857 15.369318181818183  C 9.55171130952381 20.028409090909093  14.174107142857142 23.295454545454547  16.685267857142858 25.170454545454547  C 17.745535714285715 25.965909090909093  18.605840773809526 26.58617424242424  19.266183035714285 27.03125  C 19.92652529761905 27.47632575757575  20.80543154761905 27.93087121212121  21.902901785714285 28.394886363636367  C 23.000372023809526 28.858901515151516  24.0234375 29.090909090909093  24.972098214285715 29.090909090909093  L 25 29.090909090909093  L 25.027901785714285 29.090909090909093  C 25.976562500000007 29.090909090909093  26.999627976190478 28.858901515151516  28.097098214285715 28.394886363636367  C 29.19456845238096 27.93087121212121  30.07347470238096 27.47632575757575  30.733816964285715 27.03125  C 31.394159226190478 26.58617424242424  32.254464285714285 25.965909090909093  33.314732142857146 25.170454545454547  C 36.476934523809526 22.840909090909093  41.108630952380956 19.573863636363637  47.20982142857143 15.369318181818183  Z M 48.67466517857143 1.3352272727272707  C 49.558221726190474 2.2253787878787845  50 3.295454545454546  50 4.545454545454546  C 50 6.041666666666661  49.544270833333336 7.471590909090908  48.6328125 8.83522727272727  C 47.72135416666667 10.198863636363637  46.58668154761905 11.363636363636363  45.228794642857146 12.329545454545453  C 38.234747023809526 17.27272727272727  33.882068452380956 20.35037878787879  32.17075892857143 21.5625  C 31.98474702380953 21.695075757575758  31.589471726190478 21.983901515151516  30.984933035714285 22.428977272727273  C 30.3803943452381 22.874053030303028  29.87816220238096 23.233901515151516  29.478236607142854 23.508522727272727  C 29.078311011904763 23.783143939393938  28.594680059523814 24.090909090909093  28.02734375 24.431818181818183  C 27.460007440476193 24.772727272727273  26.925223214285715 25.028409090909093  26.42299107142857 25.198863636363633  C 25.92075892857143 25.369318181818183  25.455729166666668 25.454545454545453  25.027901785714285 25.454545454545453  L 25 25.454545454545453  L 24.972098214285715 25.454545454545453  C 24.544270833333336 25.454545454545453  24.079241071428573 25.369318181818183  23.577008928571427 25.198863636363633  C 23.074776785714285 25.028409090909093  22.53999255952381 24.772727272727273  21.97265625 24.431818181818183  C 21.405319940476193 24.090909090909093  20.921688988095237 23.783143939393938  20.521763392857142 23.508522727272727  C 20.12183779761905 23.233901515151516  19.619605654761905 22.874053030303028  19.015066964285715 22.428977272727273  C 18.410528273809526 21.983901515151516  18.015252976190478 21.695075757575758  17.829241071428573 21.5625  C 16.136532738095237 20.35037878787879  13.699776785714285 18.622159090909093  10.518973214285714 16.377840909090907  C 7.338169642857142 14.133522727272725  5.4315476190476195 12.784090909090903  4.799107142857143 12.329545454545453  C 3.6458333333333335 11.534090909090903  2.557663690476191 10.440340909090908  1.5345982142857146 9.048295454545453  C 0.5115327380952382 7.65625  0 6.363636363636362  0 5.170454545454546  C 0 3.6931818181818166  0.38597470238095255 2.4621212121212066  1.1579241071428574 1.4772727272727293  C 1.9298735119047623 0.49242424242423866  3.0319940476190483 0  4.464285714285714 0  L 45.535714285714285 0  C 46.74479166666667 0  47.79110863095239 0.44507575757575246  48.67466517857143 1.3352272727272707  Z " fill-rule="nonzero" fill="#000000" stroke="none" transform="matrix(1 0 0 1 1076 242 )" />
  </g>
</svg>