<?xml version="1.0" encoding="utf-8"?>
<svg version="1.1" xmlns:xlink="http://www.w3.org/1999/xlink" width="33px" height="36px" xmlns="http://www.w3.org/2000/svg">
  <g transform="matrix(1 0 0 1 -896 -335 )">
    <path d="M 32.22222222222222 26.909090909090907  C 32.74074074074074 27.47474747474747  33 28.16161616161616  33 28.96969696969697  C 33 29.777777777777782  32.74074074074074 30.464646464646464  32.22222222222222 31.030303030303028  L 28.444444444444443 35.15151515151515  C 27.92592592592593 35.717171717171716  27.296296296296298 36  26.555555555555557 36  C 25.814814814814817 36  25.185185185185187 35.717171717171716  24.666666666666668 35.15151515151515  L 16.5 26.242424242424246  L 8.333333333333334 35.15151515151515  C 7.814814814814816 35.717171717171716  7.185185185185185 36  6.444444444444445 36  C 5.703703703703704 36  5.074074074074074 35.717171717171716  4.555555555555556 35.15151515151515  L 0.7777777777777778 31.030303030303028  C 0.2592592592592595 30.464646464646464  0 29.777777777777782  0 28.96969696969697  C 0 28.16161616161616  0.2592592592592595 27.47474747474747  0.7777777777777778 26.909090909090907  L 8.944444444444445 18  L 0.7777777777777778 9.09090909090909  C 0.2592592592592595 8.525252525252522  0 7.838383838383839  0 7.03030303030303  C 0 6.222222222222221  0.2592592592592595 5.53535353535353  0.7777777777777778 4.969696969696971  L 4.555555555555556 0.8484848484848486  C 5.074074074074074 0.28282828282828154  5.703703703703704 0  6.444444444444445 0  C 7.185185185185185 0  7.814814814814816 0.28282828282828154  8.333333333333334 0.8484848484848486  L 16.5 9.75757575757576  L 24.666666666666668 0.8484848484848486  C 25.185185185185187 0.28282828282828154  25.814814814814817 0  26.555555555555557 0  C 27.296296296296298 0  27.92592592592593 0.28282828282828154  28.444444444444443 0.8484848484848486  L 32.22222222222222 4.969696969696971  C 32.74074074074074 5.53535353535353  33 6.222222222222221  33 7.03030303030303  C 33 7.838383838383839  32.74074074074074 8.525252525252522  32.22222222222222 9.09090909090909  L 24.055555555555554 18  L 32.22222222222222 26.909090909090907  Z " fill-rule="nonzero" fill="#000000" stroke="none" transform="matrix(1 0 0 1 896 335 )" />
  </g>
</svg>