<?xml version="1.0" encoding="utf-8"?>
<svg version="1.1" xmlns:xlink="http://www.w3.org/1999/xlink" width="25px" height="35px" xmlns="http://www.w3.org/2000/svg">
  <g transform="matrix(1 0 0 1 -27 -41 )">
    <path d="M 6.944444444444445 11.136363636363638  L 6.944444444444445 16  L 18.055555555555554 16  L 18.055555555555554 11.136363636363638  C 18.055555555555554 9.379734848484848  17.513020833333336 7.87997159090909  16.42795138888889 6.6370738636363615  C 15.342881944444445 5.3941761363636385  14.033564814814817 4.7727272727272725  12.5 4.7727272727272725  C 10.966435185185187 4.7727272727272725  9.657118055555555 5.3941761363636385  8.57204861111111 6.6370738636363615  C 7.486979166666667 7.87997159090909  6.944444444444445 9.379734848484848  6.944444444444445 11.136363636363638  Z M 24.39236111111111 16.605113636363637  C 24.797453703703706 17.06912878787879  25 17.632575757575754  25 18.295454545454543  L 25 32.61363636363637  C 25 33.276515151515156  24.797453703703706 33.83996212121212  24.39236111111111 34.30397727272727  C 23.987268518518523 34.76799242424242  23.495370370370374 35  22.916666666666664 35  L 2.083333333333333 35  C 1.50462962962963 35  1.0127314814814816 34.76799242424242  0.607638888888889 34.30397727272727  C 0.20254629629629628 33.83996212121212  0 33.276515151515156  0 32.61363636363637  L 0 18.295454545454543  C 0 17.632575757575754  0.20254629629629628 17.06912878787879  0.607638888888889 16.605113636363637  C 1.0127314814814816 16.141098484848484  1.50462962962963 15.90909090909091  2.083333333333333 15.90909090909091  L 2.7777777777777777 15.90909090909091  L 2.7777777777777777 11.136363636363638  C 2.7777777777777777 8.08712121212121  3.732638888888889 5.46875  5.642361111111112 3.28125  C 7.552083333333333 1.09375  9.837962962962964 0  12.5 0  C 15.162037037037038 0  17.447916666666664 1.09375  19.35763888888889 3.28125  C 21.26736111111111 5.46875  22.22222222222222 8.08712121212121  22.22222222222222 11.136363636363638  L 22.22222222222222 15.90909090909091  L 22.916666666666664 15.90909090909091  C 23.495370370370374 15.90909090909091  23.987268518518523 16.141098484848484  24.39236111111111 16.605113636363637  Z " fill-rule="nonzero" fill="#000000" stroke="none" transform="matrix(1 0 0 1 27 41 )" />
  </g>
</svg>